<svg width="1372" height="1030" viewBox="0 0 1372 1030" fill="none" xmlns="http://www.w3.org/2000/svg">
<path d="M971.663 530.45L971.849 530.916L971.35 530.962L971.663 530.45Z" fill="#66BDE7" fill-opacity="0.5"/>
<path d="M1001.97 510.789L1002.75 510.772L1002.28 511.54L1001.97 510.789Z" fill="#66BDE7" fill-opacity="0.5"/>
<path d="M1005.99 473.907L1006.56 475.098L1005.21 475.187L1005.99 473.907Z" fill="#66BDE7" fill-opacity="0.5"/>
<path d="M1029.42 527.457L1029.53 527.664L1029.26 527.713L1029.42 527.457Z" fill="#66BDE7" fill-opacity="0.5"/>
<path d="M1036.01 454.63L1037.33 454.593L1036.54 455.873L1036.01 454.63Z" fill="#66BDE7" fill-opacity="0.5"/>
<path d="M1040.35 417.519L1041.11 419.254L1039.22 419.362L1040.35 417.519Z" fill="#66BDE7" fill-opacity="0.5"/>
<path d="M1059.92 507.773L1060.3 507.725L1060.05 508.135L1059.92 507.773Z" fill="#66BDE7" fill-opacity="0.5"/>
<path d="M1063.74 471.12L1064.08 471.819L1063.27 471.888L1063.74 471.12Z" fill="#66BDE7" fill-opacity="0.5"/>
<path d="M1070.17 398.549L1071.76 398.463L1070.82 399.999L1070.17 398.549Z" fill="#66BDE7" fill-opacity="0.5"/>
<path d="M1074.67 361.389L1075.53 363.254L1073.44 363.385L1074.67 361.389Z" fill="#66BDE7" fill-opacity="0.5"/>
<path d="M1094.12 451.718L1094.67 451.699L1094.35 452.21L1094.12 451.718Z" fill="#66BDE7" fill-opacity="0.5"/>
<path d="M1098.07 415.067L1098.37 415.818L1097.6 415.835L1098.07 415.067Z" fill="#66BDE7" fill-opacity="0.5"/>
<path d="M1104.5 342.496L1106.09 342.41L1105.15 343.946L1104.5 342.496Z" fill="#66BDE7" fill-opacity="0.5"/>
<path d="M1108.97 305.465L1109.74 307.199L1107.84 307.307L1108.97 305.465Z" fill="#66BDE7" fill-opacity="0.5"/>
<path d="M1128.58 395.743L1128.86 395.772L1128.7 396.028L1128.58 395.743Z" fill="#66BDE7" fill-opacity="0.5"/>
<path d="M1132.34 359.192L1132.57 359.685L1132.03 359.704L1132.34 359.192Z" fill="#66BDE7" fill-opacity="0.5"/>
<path d="M1139.05 286.651L1140.1 286.585L1139.47 287.609L1139.05 286.651Z" fill="#66BDE7" fill-opacity="0.5"/>
<path d="M1143.23 250.002L1143.64 250.96L1142.6 251.026L1143.23 250.002Z" fill="#66BDE7" fill-opacity="0.5"/>
<path d="M1166.63 303.397L1166.69 303.578L1166.5 303.602L1166.63 303.397Z" fill="#66BDE7" fill-opacity="0.5"/>
<path d="M522.103 601.296L522.179 601.46L522.024 601.424L522.103 601.296Z" fill="#66BDE7" fill-opacity="0.5"/>
<path d="M494.624 584.586L495.434 584.61L495.014 585.296L494.624 584.586Z" fill="#66BDE7" fill-opacity="0.5"/>
<path d="M549.374 585.822L550.675 585.912L549.993 587.026L549.374 585.822Z" fill="#66BDE7" fill-opacity="0.5"/>
<path d="M495.891 551.244L497.435 554.016L494.238 553.944L495.891 551.244Z" fill="#66BDE7" fill-opacity="0.5"/>
<path d="M439.899 583.305L440.261 583.291L440.052 583.634L439.899 583.305Z" fill="#66BDE7" fill-opacity="0.5"/>
<path d="M550.902 552.345L552.716 555.637L548.933 555.559L550.902 552.345Z" fill="#66BDE7" fill-opacity="0.5"/>
<path d="M521.303 536.4L526.274 536.557L523.676 540.8L521.303 536.4Z" fill="#66BDE7" fill-opacity="0.5"/>
<path d="M466.707 535.199L470.912 535.358L468.707 538.958L466.707 535.199Z" fill="#66BDE7" fill-opacity="0.5"/>
<path d="M440.933 550.056L442.255 552.515L439.489 552.413L440.933 550.056Z" fill="#66BDE7" fill-opacity="0.5"/>
<path d="M577.093 602.621L577.315 602.933L576.91 602.921L577.093 602.621Z" fill="#66BDE7" fill-opacity="0.5"/>
<path d="M605.866 553.714L607.74 557.101L603.845 557.014L605.866 553.714Z" fill="#66BDE7" fill-opacity="0.5"/>
<path d="M575.984 537.654L581.611 537.8L578.672 542.6L575.984 537.654Z" fill="#66BDE7" fill-opacity="0.5"/>
<path d="M524.717 501.19L528.845 508.786L520.203 508.561L524.717 501.19Z" fill="#66BDE7" fill-opacity="0.5"/>
<path d="M492.504 486.532L502.654 486.796L497.353 495.453L492.504 486.532Z" fill="#66BDE7" fill-opacity="0.5"/>
<path d="M469.755 500.296L473.434 507.086L465.714 506.895L469.755 500.296Z" fill="#66BDE7" fill-opacity="0.5"/>
<path d="M411.529 533.699L416.121 533.801L413.707 537.744L411.529 533.699Z" fill="#66BDE7" fill-opacity="0.5"/>
<path d="M385.937 548.257L387.573 551.262L384.153 551.171L385.937 548.257Z" fill="#66BDE7" fill-opacity="0.5"/>
<path d="M384.832 581.816L385.349 581.838L385.086 582.266L384.832 581.816Z" fill="#66BDE7" fill-opacity="0.5"/>
<path d="M604.441 587.313L605.587 587.366L604.983 588.352L604.441 587.313Z" fill="#66BDE7" fill-opacity="0.5"/>
<path d="M631.266 539.276L636.264 539.39L633.639 543.676L631.266 539.276Z" fill="#66BDE7" fill-opacity="0.5"/>
<path d="M579.71 502.223L584.169 510.433L574.829 510.194L579.71 502.223Z" fill="#66BDE7" fill-opacity="0.5"/>
<path d="M546.885 487.601L558.25 487.903L552.319 497.588L546.885 487.601Z" fill="#66BDE7" fill-opacity="0.5"/>
<path d="M498.563 449.406L505.531 462.276L490.9 461.919L498.563 449.406Z" fill="#66BDE7" fill-opacity="0.5"/>
<path d="M437.865 485.304L447.317 485.553L442.383 493.61L437.865 485.304Z" fill="#66BDE7" fill-opacity="0.5"/>
<path d="M414.774 498.858L418.453 505.648L410.707 505.5L414.774 498.858Z" fill="#66BDE7" fill-opacity="0.5"/>
<path d="M355.991 531.92L361.729 532.075L358.738 536.961L355.991 531.92Z" fill="#66BDE7" fill-opacity="0.5"/>
<path d="M634.686 504.247L638.593 511.531L630.356 511.318L634.686 504.247Z" fill="#66BDE7" fill-opacity="0.5"/>
<path d="M602.038 489.144L612.998 489.433L607.277 498.776L602.038 489.144Z" fill="#66BDE7" fill-opacity="0.5"/>
<path d="M553.53 450.482L560.812 463.898L545.552 463.51L553.53 450.482Z" fill="#66BDE7" fill-opacity="0.5"/>
<path d="M517.915 437.628L534.795 438.065L525.977 452.464L517.915 437.628Z" fill="#66BDE7" fill-opacity="0.5"/>
<path d="M463.105 436.295L479.649 436.704L471.015 450.803L463.105 436.295Z" fill="#66BDE7" fill-opacity="0.5"/>
<path d="M443.57 448.374L450.207 460.629L436.274 460.287L443.57 448.374Z" fill="#66BDE7" fill-opacity="0.5"/>
<path d="M382.456 483.604L392.804 483.93L387.398 492.758L382.456 483.604Z" fill="#66BDE7" fill-opacity="0.5"/>
<path d="M359.821 496.318L364.432 504.858L354.756 504.589L359.821 496.318Z" fill="#66BDE7" fill-opacity="0.5"/>
<path d="M331.018 545.854L333.45 550.349L328.341 550.225L331.018 545.854Z" fill="#66BDE7" fill-opacity="0.5"/>
<path d="M329.294 580.037L330.957 580.112L330.091 581.526L329.294 580.037Z" fill="#66BDE7" fill-opacity="0.5"/>
<path d="M659.594 588.856L660.334 588.897L659.941 589.54L659.594 588.856Z" fill="#66BDE7" fill-opacity="0.5"/>
<path d="M660.851 555.626L662.292 558.276L659.277 558.197L660.851 555.626Z" fill="#66BDE7" fill-opacity="0.5"/>
<path d="M689.194 507.324L691.999 513.617L685.15 513.927L689.194 507.324Z" fill="#66BDE7" fill-opacity="0.5"/>
<path d="M657.371 492.412L666.675 491.845L661.126 500.905L657.371 492.412Z" fill="#66BDE7" fill-opacity="0.5"/>
<path d="M608.521 452.289L614.689 466.273L599.461 467.083L608.521 452.289Z" fill="#66BDE7" fill-opacity="0.5"/>
<path d="M572.178 440.239L589.872 439.25L579.37 456.399L572.178 440.239Z" fill="#66BDE7" fill-opacity="0.5"/>
<path d="M527.641 398.747L536.308 418.273L515.008 419.377L527.641 398.747Z" fill="#66BDE7" fill-opacity="0.5"/>
<path d="M488.568 389.038L511.367 387.796L497.856 409.859L488.568 389.038Z" fill="#66BDE7" fill-opacity="0.5"/>
<path d="M472.364 397.89L482.002 415.636L461.84 415.074L472.364 397.89Z" fill="#66BDE7" fill-opacity="0.5"/>
<path d="M408.252 434.936L424.546 435.368L416.017 449.296L408.252 434.936Z" fill="#66BDE7" fill-opacity="0.5"/>
<path d="M388.601 446.532L395.611 459.428L380.911 459.088L388.601 446.532Z" fill="#66BDE7" fill-opacity="0.5"/>
<path d="M325.863 481.237L339.434 481.593L332.348 493.164L325.863 481.237Z" fill="#66BDE7" fill-opacity="0.5"/>
<path d="M304.859 492.829L311.208 504.495L297.931 504.142L304.859 492.829Z" fill="#66BDE7" fill-opacity="0.5"/>
<path d="M299.509 529.565L308.333 529.782L303.714 537.325L299.509 529.565Z" fill="#66BDE7" fill-opacity="0.5"/>
<path d="M302.226 594.986L302.828 596.12L301.57 596.057L302.226 594.986Z" fill="#66BDE7" fill-opacity="0.5"/>
<path d="M686.804 541.054L690.63 541.158L688.635 544.415L686.804 541.054Z" fill="#66BDE7" fill-opacity="0.5"/>
<path d="M716.077 489.79L723.383 489.407L719.057 496.471L716.077 489.79Z" fill="#66BDE7" fill-opacity="0.5"/>
<path d="M666.151 450.557L671.423 462.444L658.439 463.15L666.151 450.557Z" fill="#66BDE7" fill-opacity="0.5"/>
<path d="M630.754 437.538L646.758 436.71L637.259 452.221L630.754 437.538Z" fill="#66BDE7" fill-opacity="0.5"/>
<path d="M585.418 395.909L593.899 414.968L573.036 416.129L585.418 395.909Z" fill="#66BDE7" fill-opacity="0.5"/>
<path d="M546.416 385.891L569.066 384.699L555.618 406.66L546.416 385.891Z" fill="#66BDE7" fill-opacity="0.5"/>
<path d="M504.446 343.578L514.532 366.366L489.65 367.74L504.446 343.578Z" fill="#66BDE7" fill-opacity="0.5"/>
<path d="M434.221 386.374L456.098 386.926L444.682 405.567L434.221 386.374Z" fill="#66BDE7" fill-opacity="0.5"/>
<path d="M417.385 396.159L427.278 414.356L406.573 413.815L417.385 396.159Z" fill="#66BDE7" fill-opacity="0.5"/>
<path d="M352.285 432.895L370.604 433.389L361.025 449.03L352.285 432.895Z" fill="#66BDE7" fill-opacity="0.5"/>
<path d="M333.662 443.293L342.173 458.935L324.346 458.506L333.662 443.293Z" fill="#66BDE7" fill-opacity="0.5"/>
<path d="M268.653 478.435L286.79 478.936L277.343 494.363L268.653 478.435Z" fill="#66BDE7" fill-opacity="0.5"/>
<path d="M276.078 542.616L280.054 549.883L271.747 549.687L276.078 542.616Z" fill="#66BDE7" fill-opacity="0.5"/>
<path d="M273.044 577.881L277.232 577.971L275.054 581.527L273.044 577.881Z" fill="#66BDE7" fill-opacity="0.5"/>
<path d="M715.802 557.692L716.674 559.346L714.804 559.321L715.802 557.692Z" fill="#66BDE7" fill-opacity="0.5"/>
<path d="M723.763 449.237L727.867 458.508L717.744 459.066L723.763 449.237Z" fill="#66BDE7" fill-opacity="0.5"/>
<path d="M689.984 435.309L702.894 434.627L695.245 447.118L689.984 435.309Z" fill="#66BDE7" fill-opacity="0.5"/>
<path d="M643.056 393.971L650.773 411.295L631.802 412.348L643.056 393.971Z" fill="#66BDE7" fill-opacity="0.5"/>
<path d="M604.79 383.136L626.122 381.981L613.426 402.713L604.79 383.136Z" fill="#66BDE7" fill-opacity="0.5"/>
<path d="M562.18 340.712L572.135 363.138L547.635 364.464L562.18 340.712Z" fill="#66BDE7" fill-opacity="0.5"/>
<path d="M521.652 332.224L547.046 330.882L531.967 355.505L521.652 332.224Z" fill="#66BDE7" fill-opacity="0.5"/>
<path d="M463.535 335.135L489.694 333.699L474.146 359.089L463.535 335.135Z" fill="#66BDE7" fill-opacity="0.5"/>
<path d="M446.72 346.236L457.113 369.775L431.454 371.166L446.72 346.236Z" fill="#66BDE7" fill-opacity="0.5"/>
<path d="M378.511 384.491L401.896 385.082L389.693 405.009L378.511 384.491Z" fill="#66BDE7" fill-opacity="0.5"/>
<path d="M362.442 393.507L373.326 413.549L350.527 412.963L362.442 393.507Z" fill="#66BDE7" fill-opacity="0.5"/>
<path d="M295.247 430.198L317.727 430.824L305.996 449.98L295.247 430.198Z" fill="#66BDE7" fill-opacity="0.5"/>
<path d="M278.76 438.839L289.78 459.141L266.714 458.509L278.76 438.839Z" fill="#66BDE7" fill-opacity="0.5"/>
<path d="M249.989 488.515L258.712 504.581L240.41 504.157L249.989 488.515Z" fill="#66BDE7" fill-opacity="0.5"/>
<path d="M242.6 526.945L255.335 527.319L248.695 538.161L242.6 526.945Z" fill="#66BDE7" fill-opacity="0.5"/>
<path d="M247.274 592.152L249.046 595.417L245.358 595.28L247.274 592.152Z" fill="#66BDE7" fill-opacity="0.5"/>
<path d="M246.047 625.813L246.788 625.854L246.421 626.454L246.047 625.813Z" fill="#66BDE7" fill-opacity="0.5"/>
<path d="M741.796 544.112L744.262 543.933L742.789 546.339L741.796 544.112Z" fill="#66BDE7" fill-opacity="0.5"/>
<path d="M746.862 505.334L748.946 509.918L743.884 510.197L746.862 505.334Z" fill="#66BDE7" fill-opacity="0.5"/>
<path d="M781.373 447.634L784.484 454.678L776.796 455.108L781.373 447.634Z" fill="#66BDE7" fill-opacity="0.5"/>
<path d="M749.001 432.948L759.241 432.391L753.159 442.322L749.001 432.948Z" fill="#66BDE7" fill-opacity="0.5"/>
<path d="M700.606 392.753L707.089 407.281L691.201 408.11L700.606 392.753Z" fill="#66BDE7" fill-opacity="0.5"/>
<path d="M663.721 380.723L682.617 379.695L671.394 398.022L663.721 380.723Z" fill="#66BDE7" fill-opacity="0.5"/>
<path d="M619.857 338.518L629.222 359.597L606.189 360.836L619.857 338.518Z" fill="#66BDE7" fill-opacity="0.5"/>
<path d="M579.812 329.337L604.386 327.986L589.778 351.841L579.812 329.337Z" fill="#66BDE7" fill-opacity="0.5"/>
<path d="M538.786 286.828L549.384 310.705L523.3 312.116L538.786 286.828Z" fill="#66BDE7" fill-opacity="0.5"/>
<path d="M497.66 279.029L524.17 277.596L508.433 303.294L497.66 279.029Z" fill="#66BDE7" fill-opacity="0.5"/>
<path d="M481.08 289.358L492.082 314.115L465.03 315.567L481.08 289.358Z" fill="#66BDE7" fill-opacity="0.5"/>
<path d="M405.259 338.021L432.46 336.519L416.316 362.882L405.259 338.021Z" fill="#66BDE7" fill-opacity="0.5"/>
<path d="M391.22 344.78L403.622 367.636L377.652 366.935L391.22 344.78Z" fill="#66BDE7" fill-opacity="0.5"/>
<path d="M321.901 382.055L348.595 382.728L334.633 405.527L321.901 382.055Z" fill="#66BDE7" fill-opacity="0.5"/>
<path d="M307.56 389.597L320.53 413.449L293.363 412.781L307.56 389.597Z" fill="#66BDE7" fill-opacity="0.5"/>
<path d="M237.625 427.202L265.465 427.928L250.926 451.67L237.625 427.202Z" fill="#66BDE7" fill-opacity="0.5"/>
<path d="M223.874 434.455L237.327 459.251L209.125 458.539L223.874 434.455Z" fill="#66BDE7" fill-opacity="0.5"/>
<path d="M211.186 475.476L234.39 476.074L222.265 495.873L211.186 475.476Z" fill="#66BDE7" fill-opacity="0.5"/>
<path d="M221.178 538.929L226.975 549.668L214.8 549.343L221.178 538.929Z" fill="#66BDE7" fill-opacity="0.5"/>
<path d="M216.562 575.525L223.835 575.677L220.029 581.891L216.562 575.525Z" fill="#66BDE7" fill-opacity="0.5"/>
<path d="M218.539 640.905L218.751 641.329L218.277 641.334L218.539 640.905Z" fill="#66BDE7" fill-opacity="0.5"/>
<path d="M770.06 560.788L770.464 561.669L769.527 561.658L770.06 560.788Z" fill="#66BDE7" fill-opacity="0.5"/>
<path d="M774.836 487.271L780.015 486.993L776.943 492.01L774.836 487.271Z" fill="#66BDE7" fill-opacity="0.5"/>
<path d="M807.888 430.508L815.694 430.079L811.054 437.655L807.888 430.508Z" fill="#66BDE7" fill-opacity="0.5"/>
<path d="M758.219 391.434L763.491 403.32L750.539 403.975L758.219 391.434Z" fill="#66BDE7" fill-opacity="0.5"/>
<path d="M723.079 378.572L738.572 377.713L729.387 392.711L723.079 378.572Z" fill="#66BDE7" fill-opacity="0.5"/>
<path d="M677.475 336.708L685.924 355.819L665.092 356.928L677.475 336.708Z" fill="#66BDE7" fill-opacity="0.5"/>
<path d="M638.313 326.662L661.303 325.396L647.667 347.664L638.313 326.662Z" fill="#66BDE7" fill-opacity="0.5"/>
<path d="M596.554 284.197L606.815 307.373L581.538 308.717L596.554 284.197Z" fill="#66BDE7" fill-opacity="0.5"/>
<path d="M555.775 276.117L581.552 274.728L566.254 299.708L555.775 276.117Z" fill="#66BDE7" fill-opacity="0.5"/>
<path d="M515.37 233.846L525.992 257.877L499.79 259.288L515.37 233.846Z" fill="#66BDE7" fill-opacity="0.5"/>
<path d="M439.415 281.863L466.967 280.364L450.571 307.137L439.415 281.863Z" fill="#66BDE7" fill-opacity="0.5"/>
<path d="M423.395 291.76L434.909 317.605L406.623 319.147L423.395 291.76Z" fill="#66BDE7" fill-opacity="0.5"/>
<path d="M349.754 334.648L378.18 335.38L363.326 359.636L349.754 334.648Z" fill="#66BDE7" fill-opacity="0.5"/>
<path d="M336.301 341.317L350.398 367.274L320.869 366.515L336.301 341.317Z" fill="#66BDE7" fill-opacity="0.5"/>
<path d="M264.691 379.253L295.882 380.087L279.585 406.7L264.691 379.253Z" fill="#66BDE7" fill-opacity="0.5"/>
<path d="M252.646 385.548L267.821 413.403L236.086 412.59L252.646 385.548Z" fill="#66BDE7" fill-opacity="0.5"/>
<path d="M180.245 424.295L212.97 425.126L195.859 453.067L180.245 424.295Z" fill="#66BDE7" fill-opacity="0.5"/>
<path d="M195.055 484.689L205.744 504.376L183.35 503.802L195.055 484.689Z" fill="#66BDE7" fill-opacity="0.5"/>
<path d="M185.663 524.37L202.388 524.771L193.649 539.042L185.663 524.37Z" fill="#66BDE7" fill-opacity="0.5"/>
<path d="M192.343 589.094L195.437 594.819L188.931 594.666L192.343 589.094Z" fill="#66BDE7" fill-opacity="0.5"/>
<path d="M190.038 623.746L192.872 623.832L191.376 626.274L190.038 623.746Z" fill="#66BDE7" fill-opacity="0.5"/>
<path d="M799.985 541.175L801.538 541.14L800.629 542.625L799.985 541.175Z" fill="#66BDE7" fill-opacity="0.5"/>
<path d="M804.552 503.216L805.949 506.323L802.514 506.543L804.552 503.216Z" fill="#66BDE7" fill-opacity="0.5"/>
<path d="M815.84 389.907L820.053 399.385L809.664 399.992L815.84 389.907Z" fill="#66BDE7" fill-opacity="0.5"/>
<path d="M782.041 376.107L794.994 375.452L787.313 387.994L782.041 376.107Z" fill="#66BDE7" fill-opacity="0.5"/>
<path d="M735.057 335.439L742.358 351.806L724.43 352.793L735.057 335.439Z" fill="#66BDE7" fill-opacity="0.5"/>
<path d="M697.318 324.224L717.725 323.136L705.593 342.947L697.318 324.224Z" fill="#66BDE7" fill-opacity="0.5"/>
<path d="M654.192 282.258L663.678 303.623L640.305 304.936L654.192 282.258Z" fill="#66BDE7" fill-opacity="0.5"/>
<path d="M614.224 273.337L638.607 272.01L624.093 295.711L614.224 273.337Z" fill="#66BDE7" fill-opacity="0.5"/>
<path d="M573.028 231.779L582.983 254.205L558.451 255.583L573.028 231.779Z" fill="#66BDE7" fill-opacity="0.5"/>
<path d="M533.015 223.606L557.324 222.303L542.873 245.902L533.015 223.606Z" fill="#66BDE7" fill-opacity="0.5"/>
<path d="M474.481 226.333L500.406 224.893L485.014 250.028L474.481 226.333Z" fill="#66BDE7" fill-opacity="0.5"/>
<path d="M457.633 236.427L468.647 261.261L441.52 262.739L457.633 236.427Z" fill="#66BDE7" fill-opacity="0.5"/>
<path d="M380.785 284.459L410.155 282.878L392.694 311.391L380.785 284.459Z" fill="#66BDE7" fill-opacity="0.5"/>
<path d="M365.785 293.364L378.261 321.487L347.54 323.156L365.785 293.364Z" fill="#66BDE7" fill-opacity="0.5"/>
<path d="M292.673 331.925L325.372 332.799L308.314 360.654L292.673 331.925Z" fill="#66BDE7" fill-opacity="0.5"/>
<path d="M281.386 337.269L297.645 367.201L263.593 366.324L281.386 337.269Z" fill="#66BDE7" fill-opacity="0.5"/>
<path d="M207.61 376.53L243.101 377.463L224.547 407.761L207.61 376.53Z" fill="#66BDE7" fill-opacity="0.5"/>
<path d="M197.725 381.319L215.17 413.451L178.645 412.474L197.725 381.319Z" fill="#66BDE7" fill-opacity="0.5"/>
<path d="M168.95 430.519L184.488 459.126L151.944 458.289L168.95 430.519Z" fill="#66BDE7" fill-opacity="0.5"/>
<path d="M154.319 472.883L181.349 473.585L167.23 496.641L154.319 472.883Z" fill="#66BDE7" fill-opacity="0.5"/>
<path d="M166.255 535.76L173.494 549.15L158.303 548.745L166.255 535.76Z" fill="#66BDE7" fill-opacity="0.5"/>
<path d="M160.295 573.3L170.195 573.588L165.051 581.987L160.295 573.3Z" fill="#66BDE7" fill-opacity="0.5"/>
<path d="M163.568 638.295L164.797 640.521L162.229 640.481L163.568 638.295Z" fill="#66BDE7" fill-opacity="0.5"/>
<path d="M833.252 484.543L837.037 484.327L834.78 488.013L833.252 484.543Z" fill="#66BDE7" fill-opacity="0.5"/>
<path d="M839 445.618L841.401 451.03L835.52 451.3L839 445.618Z" fill="#66BDE7" fill-opacity="0.5"/>
<path d="M873.47 388.175L876.798 395.633L868.642 396.058L873.47 388.175Z" fill="#66BDE7" fill-opacity="0.5"/>
<path d="M841.101 373.773L851.341 373.216L845.259 383.147L841.101 373.773Z" fill="#66BDE7" fill-opacity="0.5"/>
<path d="M792.65 334.247L798.675 347.791L783.841 348.631L792.65 334.247Z" fill="#66BDE7" fill-opacity="0.5"/>
<path d="M756.721 322.099L773.65 321.204L763.587 337.636L756.721 322.099Z" fill="#66BDE7" fill-opacity="0.5"/>
<path d="M711.781 280.783L720.208 299.739L699.462 300.901L711.781 280.783Z" fill="#66BDE7" fill-opacity="0.5"/>
<path d="M673.155 270.924L695.029 269.749L682.05 290.942L673.155 270.924Z" fill="#66BDE7" fill-opacity="0.5"/>
<path d="M630.666 229.841L639.857 250.532L617.218 251.801L630.666 229.841Z" fill="#66BDE7" fill-opacity="0.5"/>
<path d="M591.688 221.034L614.03 219.864L600.77 241.518L591.688 221.034Z" fill="#66BDE7" fill-opacity="0.5"/>
<path d="M549.357 180.752L558.133 200.486L536.536 201.689L549.357 180.752Z" fill="#66BDE7" fill-opacity="0.5"/>
<path d="M511.207 171.749L531.996 170.614L519.645 190.783L511.207 171.749Z" fill="#66BDE7" fill-opacity="0.5"/>
<path d="M491.732 182.769L501.217 204.133L477.844 205.446L491.732 182.769Z" fill="#66BDE7" fill-opacity="0.5"/>
<path d="M415.979 229.008L443.457 227.534L427.156 254.153L415.979 229.008Z" fill="#66BDE7" fill-opacity="0.5"/>
<path d="M399.976 238.494L411.688 264.883L382.828 266.495L399.976 238.494Z" fill="#66BDE7" fill-opacity="0.5"/>
<path d="M321.522 286.741L354.093 284.937L334.751 316.522L321.522 286.741Z" fill="#66BDE7" fill-opacity="0.5"/>
<path d="M310.118 290.93L325.927 320.057L292.823 319.171L310.118 290.93Z" fill="#66BDE7" fill-opacity="0.5"/>
<path d="M235.593 329.201L272.592 330.174L253.276 361.715L235.593 329.201Z" fill="#66BDE7" fill-opacity="0.5"/>
<path d="M226.462 333.333L244.85 367.102L206.386 366.116L226.462 333.333Z" fill="#66BDE7" fill-opacity="0.5"/>
<path d="M150.589 373.902L190.198 374.942L169.518 408.711L150.589 373.902Z" fill="#66BDE7" fill-opacity="0.5"/>
<path d="M142.794 377.968L161.859 413.036L121.957 411.994L142.794 377.968Z" fill="#66BDE7" fill-opacity="0.5"/>
<path d="M123.334 421.676L159.971 422.663L140.839 453.904L123.334 421.676Z" fill="#66BDE7" fill-opacity="0.5"/>
<path d="M140.125 481.339L152.451 504.031L126.636 503.366L140.125 481.339Z" fill="#66BDE7" fill-opacity="0.5"/>
<path d="M129.354 522.118L148.801 522.596L138.645 539.181L129.354 522.118Z" fill="#66BDE7" fill-opacity="0.5"/>
<path d="M137.424 586.399L141.612 594.09L132.858 593.855L137.424 586.399Z" fill="#66BDE7" fill-opacity="0.5"/>
<path d="M133.942 621.626L139.025 621.793L136.375 626.121L133.942 621.626Z" fill="#66BDE7" fill-opacity="0.5"/>
<path d="M862.258 500.686L863.251 502.913L860.816 503.041L862.258 500.686Z" fill="#66BDE7" fill-opacity="0.5"/>
<path d="M866.379 427.754L872.717 427.412L868.923 433.606L866.379 427.754Z" fill="#66BDE7" fill-opacity="0.5"/>
<path d="M899.903 371.281L907.868 370.879L903.165 378.558L899.903 371.281Z" fill="#66BDE7" fill-opacity="0.5"/>
<path d="M850.244 333.056L854.992 343.777L843.284 344.42L850.244 333.056Z" fill="#66BDE7" fill-opacity="0.5"/>
<path d="M815.993 319.895L829.711 319.145L821.56 332.455L815.993 319.895Z" fill="#66BDE7" fill-opacity="0.5"/>
<path d="M769.304 279.9L776.311 295.594L759.148 296.486L769.304 279.9Z" fill="#66BDE7" fill-opacity="0.5"/>
<path d="M732.513 268.773L751.027 267.793L740.023 285.76L732.513 268.773Z" fill="#66BDE7" fill-opacity="0.5"/>
<path d="M688.247 228.572L696.216 246.544L676.586 247.615L688.247 228.572Z" fill="#66BDE7" fill-opacity="0.5"/>
<path d="M650.576 218.595L670.557 217.528L658.708 236.877L650.576 218.595Z" fill="#66BDE7" fill-opacity="0.5"/>
<path d="M606.979 179.227L614.707 196.629L595.694 197.655L606.979 179.227Z" fill="#66BDE7" fill-opacity="0.5"/>
<path d="M569.966 169.231L588.629 168.201L577.531 186.322L569.966 169.231Z" fill="#66BDE7" fill-opacity="0.5"/>
<path d="M525.634 130.678L532.597 146.346L515.477 147.264L525.634 130.678Z" fill="#66BDE7" fill-opacity="0.5"/>
<path d="M452.491 174.294L475.333 173.079L461.759 195.244L452.491 174.294Z" fill="#66BDE7" fill-opacity="0.5"/>
<path d="M434.09 184.423L444.526 207.989L418.823 209.353L434.09 184.423Z" fill="#66BDE7" fill-opacity="0.5"/>
<path d="M357.306 231.579L386.751 229.973L369.259 258.537L357.306 231.579Z" fill="#66BDE7" fill-opacity="0.5"/>
<path d="M342.374 239.891L355.243 268.818L323.597 270.554L342.374 239.891Z" fill="#66BDE7" fill-opacity="0.5"/>
<path d="M265.289 282.922L300.263 283.833L281.997 313.66L265.289 282.922Z" fill="#66BDE7" fill-opacity="0.5"/>
<path d="M255.167 287.037L273.046 319.906L235.642 318.92L255.167 287.037Z" fill="#66BDE7" fill-opacity="0.5"/>
<path d="M178.725 326.608L219.549 327.685L198.213 362.526L178.725 326.608Z" fill="#66BDE7" fill-opacity="0.5"/>
<path d="M171.531 330.275L191.283 366.531L149.958 365.501L171.531 330.275Z" fill="#66BDE7" fill-opacity="0.5"/>
<path d="M94.5788 371.835L136.282 372.919L114.5 408.488L94.5788 371.835Z" fill="#66BDE7" fill-opacity="0.5"/>
<path d="M114.025 427.642L130.793 458.476L95.6805 457.597L114.025 427.642Z" fill="#66BDE7" fill-opacity="0.5"/>
<path d="M97.9406 470.649L127.805 471.437L112.216 496.892L97.9406 470.649Z" fill="#66BDE7" fill-opacity="0.5"/>
<path d="M111.277 532.97L119.669 548.421L102.092 547.969L111.277 532.97Z" fill="#66BDE7" fill-opacity="0.5"/>
<path d="M104.2 571.18L116.375 571.506L109.998 581.919L104.2 571.18Z" fill="#66BDE7" fill-opacity="0.5"/>
<path d="M108.611 636.048L110.475 639.547L106.538 639.433L108.611 636.048Z" fill="#66BDE7" fill-opacity="0.5"/>
<path d="M107.219 669.785L108.253 669.829L107.728 670.686L107.219 669.785Z" fill="#66BDE7" fill-opacity="0.5"/>
<path d="M891.455 481.683L894.347 481.483L892.623 484.299L891.455 481.683Z" fill="#66BDE7" fill-opacity="0.5"/>
<path d="M896.696 443.295L898.605 447.49L893.969 447.748L896.696 443.295Z" fill="#66BDE7" fill-opacity="0.5"/>
<path d="M907.833 331.581L911.522 339.894L902.472 340.335L907.833 331.581Z" fill="#66BDE7" fill-opacity="0.5"/>
<path d="M875.267 317.692L885.772 317.087L879.503 327.325L875.267 317.692Z" fill="#66BDE7" fill-opacity="0.5"/>
<path d="M826.889 278.915L832.456 291.474L818.738 292.224L826.889 278.915Z" fill="#66BDE7" fill-opacity="0.5"/>
<path d="M791.959 266.674L806.878 265.886L798.038 280.321L791.959 266.674Z" fill="#66BDE7" fill-opacity="0.5"/>
<path d="M745.861 227.253L752.661 242.609L735.892 243.531L745.861 227.253Z" fill="#66BDE7" fill-opacity="0.5"/>
<path d="M709.721 216.313L726.799 215.368L716.674 231.903L709.721 216.313Z" fill="#66BDE7" fill-opacity="0.5"/>
<path d="M664.608 177.494L671.451 192.877L654.639 193.773L664.608 177.494Z" fill="#66BDE7" fill-opacity="0.5"/>
<path d="M628.854 166.791L645.124 165.915L635.469 181.681L628.854 166.791Z" fill="#66BDE7" fill-opacity="0.5"/>
<path d="M583.284 128.818L589.429 142.646L574.318 143.458L583.284 128.818Z" fill="#66BDE7" fill-opacity="0.5"/>
<path d="M548.545 117.61L562.805 116.84L554.341 130.662L548.545 117.61Z" fill="#66BDE7" fill-opacity="0.5"/>
<path d="M489.614 120.023L506.384 119.101L496.415 135.38L489.614 120.023Z" fill="#66BDE7" fill-opacity="0.5"/>
<path d="M468.045 132.153L476.067 150.229L456.32 151.299L468.045 132.153Z" fill="#66BDE7" fill-opacity="0.5"/>
<path d="M393.4 176.68L418.986 175.314L403.813 200.09L393.4 176.68Z" fill="#66BDE7" fill-opacity="0.5"/>
<path d="M376.472 186.233L387.78 211.74L359.92 213.261L376.472 186.233Z" fill="#66BDE7" fill-opacity="0.5"/>
<path d="M298.118 233.836L330.583 232.109L311.304 263.591L298.118 233.836Z" fill="#66BDE7" fill-opacity="0.5"/>
<path d="M284.852 240.775L299.109 273.015L263.943 274.919L284.852 240.775Z" fill="#66BDE7" fill-opacity="0.5"/>
<path d="M208.507 280.382L247.195 281.387L226.987 314.385L208.507 280.382Z" fill="#66BDE7" fill-opacity="0.5"/>
<path d="M200.29 283.599L219.778 319.517L178.927 318.483L200.29 283.599Z" fill="#66BDE7" fill-opacity="0.5"/>
<path d="M122.93 324.673L165.443 325.782L143.215 362.079L122.93 324.673Z" fill="#66BDE7" fill-opacity="0.5"/>
<path d="M116.583 327.916L137.047 365.609L94.1974 364.471L116.583 327.916Z" fill="#66BDE7" fill-opacity="0.5"/>
<path d="M87.8163 376.237L107.136 411.756L66.7164 410.692L87.8163 376.237Z" fill="#66BDE7" fill-opacity="0.5"/>
<path d="M68.1387 420.107L105.249 421.09L85.8554 452.759L68.1387 420.107Z" fill="#66BDE7" fill-opacity="0.5"/>
<path d="M85.1594 479.203L98.07 502.961L71.0403 502.259L85.1594 479.203Z" fill="#66BDE7" fill-opacity="0.5"/>
<path d="M73.4726 520.13L94.6947 520.693L83.6199 538.777L73.4726 520.13Z" fill="#66BDE7" fill-opacity="0.5"/>
<path d="M82.4737 583.565L87.7887 593.361L76.6476 593.079L82.4737 583.565Z" fill="#66BDE7" fill-opacity="0.5"/>
<path d="M78.2492 619.812L84.8238 619.949L81.3859 625.563L78.2492 619.812Z" fill="#66BDE7" fill-opacity="0.5"/>
<path d="M915.833 535.114L916.758 535.046L916.194 535.968L915.833 535.114Z" fill="#66BDE7" fill-opacity="0.5"/>
<path d="M920.002 497.899L920.767 499.634L918.874 499.742L920.002 497.899Z" fill="#66BDE7" fill-opacity="0.5"/>
<path d="M924.924 425.105L929.603 424.874L926.813 429.43L924.924 425.105Z" fill="#66BDE7" fill-opacity="0.5"/>
<path d="M931.108 386.237L933.629 391.934L927.409 392.277L931.108 386.237Z" fill="#66BDE7" fill-opacity="0.5"/>
<path d="M965.474 329.927L968.182 336.089L961.493 336.428L965.474 329.927Z" fill="#66BDE7" fill-opacity="0.5"/>
<path d="M934.198 315.277L942.195 314.825L937.461 322.555L934.198 315.277Z" fill="#66BDE7" fill-opacity="0.5"/>
<path d="M884.45 277.773L888.729 287.433L878.212 287.96L884.45 277.773Z" fill="#66BDE7" fill-opacity="0.5"/>
<path d="M851.189 264.444L862.971 263.776L855.981 275.192L851.189 264.444Z" fill="#66BDE7" fill-opacity="0.5"/>
<path d="M803.39 226.164L808.891 238.542L795.365 239.269L803.39 226.164Z" fill="#66BDE7" fill-opacity="0.5"/>
<path d="M768.908 214.056L782.934 213.284L774.626 226.85L768.908 214.056Z" fill="#66BDE7" fill-opacity="0.5"/>
<path d="M722.241 176.046L727.94 188.968L713.871 189.714L722.241 176.046Z" fill="#66BDE7" fill-opacity="0.5"/>
<path d="M687.785 164.377L701.576 163.603L693.363 177.014L687.785 164.377Z" fill="#66BDE7" fill-opacity="0.5"/>
<path d="M640.901 127.008L646.13 138.868L633.221 139.549L640.901 127.008Z" fill="#66BDE7" fill-opacity="0.5"/>
<path d="M607.261 115.065L619.543 114.351L612.239 126.278L607.261 115.065Z" fill="#66BDE7" fill-opacity="0.5"/>
<path d="M559.576 78.3322L564.107 88.6383L552.899 89.2356L559.576 78.3322Z" fill="#66BDE7" fill-opacity="0.5"/>
<path d="M526.481 65.5966L537.763 64.9743L531.055 75.9291L526.481 65.5966Z" fill="#66BDE7" fill-opacity="0.5"/>
<path d="M501.986 79.8065L507.619 92.5472L493.71 93.3207L501.986 79.8065Z" fill="#66BDE7" fill-opacity="0.5"/>
<path d="M430.598 122.384L450.037 121.337L438.469 140.226L430.598 122.384Z" fill="#66BDE7" fill-opacity="0.5"/>
<path d="M410.412 133.601L419.536 154.111L397.088 155.357L410.412 133.601Z" fill="#66BDE7" fill-opacity="0.5"/>
<path d="M334.427 179.067L362.596 177.524L345.887 204.808L334.427 179.067Z" fill="#66BDE7" fill-opacity="0.5"/>
<path d="M318.863 187.837L331.121 215.545L300.869 217.22L318.863 187.837Z" fill="#66BDE7" fill-opacity="0.5"/>
<path d="M238.813 236.09L274.51 234.089L253.287 268.745L238.813 236.09Z" fill="#66BDE7" fill-opacity="0.5"/>
<path d="M228.928 239.147L246.39 271.349L209.796 270.388L228.928 239.147Z" fill="#66BDE7" fill-opacity="0.5"/>
<path d="M152.24 278.157L193.538 279.229L171.966 314.455L152.24 278.157Z" fill="#66BDE7" fill-opacity="0.5"/>
<path d="M145.327 281.171L165.697 318.631L123.046 317.555L145.327 281.171Z" fill="#66BDE7" fill-opacity="0.5"/>
<path d="M67.7508 323.173L110.626 324.268L88.2404 360.823L67.7508 323.173Z" fill="#66BDE7" fill-opacity="0.5"/>
<path d="M61.58 326.995L81.6796 363.935L39.6403 362.822L61.58 326.995Z" fill="#66BDE7" fill-opacity="0.5"/>
<path d="M40.0683 370.686L80.8498 371.736L59.54 406.534L40.0683 370.686Z" fill="#66BDE7" fill-opacity="0.5"/>
<path d="M59.0121 426.834L75.2282 456.74L41.2452 455.846L59.0121 426.834Z" fill="#66BDE7" fill-opacity="0.5"/>
<path d="M43.4313 469.5L72.3738 470.254L57.2575 494.938L43.4313 469.5Z" fill="#66BDE7" fill-opacity="0.5"/>
<path d="M56.3177 531.014L65.1594 547.271L46.6601 546.785L56.3177 531.014Z" fill="#66BDE7" fill-opacity="0.5"/>
<path d="M48.3187 569.192L62.3374 569.586L55.0154 581.542L48.3187 569.192Z" fill="#66BDE7" fill-opacity="0.5"/>
<path d="M53.6681 634.162L55.9224 638.371L51.1487 638.276L53.6681 634.162Z" fill="#66BDE7" fill-opacity="0.5"/>
<path d="M52.0237 668.216L53.5315 668.255L52.7442 669.541L52.0237 668.216Z" fill="#66BDE7" fill-opacity="0.5"/>
<path d="M943.374 551.628L943.603 552.12L943.061 552.14L943.374 551.628Z" fill="#66BDE7" fill-opacity="0.5"/>
<path d="M949.517 478.668L951.835 478.539L950.455 480.791L949.517 478.668Z" fill="#66BDE7" fill-opacity="0.5"/>
<path d="M954.414 440.841L955.822 444.026L952.345 444.22L954.414 440.841Z" fill="#66BDE7" fill-opacity="0.5"/>
<path d="M958.704 368.788L964.5 368.466L961.051 374.097L958.704 368.788Z" fill="#66BDE7" fill-opacity="0.5"/>
<path d="M992.988 312.709L998.9 312.388L995.389 318.121L992.988 312.709Z" fill="#66BDE7" fill-opacity="0.5"/>
<path d="M942.072 276.248L945.335 283.525L937.338 283.978L942.072 276.248Z" fill="#66BDE7" fill-opacity="0.5"/>
<path d="M910.364 262.111L919.18 261.667L913.945 270.216L910.364 262.111Z" fill="#66BDE7" fill-opacity="0.5"/>
<path d="M861.003 224.842L865.325 234.528L854.702 235.132L861.003 224.842Z" fill="#66BDE7" fill-opacity="0.5"/>
<path d="M828.041 211.697L839.175 211.124L832.561 221.926L828.041 211.697Z" fill="#66BDE7" fill-opacity="0.5"/>
<path d="M779.87 174.313L784.673 185.138L772.817 185.831L779.87 174.313Z" fill="#66BDE7" fill-opacity="0.5"/>
<path d="M746.575 161.807L758.209 161.189L751.281 172.502L746.575 161.807Z" fill="#66BDE7" fill-opacity="0.5"/>
<path d="M698.601 124.968L703.121 135.197L691.924 135.871L698.601 124.968Z" fill="#66BDE7" fill-opacity="0.5"/>
<path d="M665.796 112.338L676.461 111.76L670.098 122.152L665.796 112.338Z" fill="#66BDE7" fill-opacity="0.5"/>
<path d="M617.254 76.1366L621.227 85.045L611.455 85.6067L617.254 76.1366Z" fill="#66BDE7" fill-opacity="0.5"/>
<path d="M585.315 63.0531L594.396 62.561L588.973 71.417L585.315 63.0531Z" fill="#66BDE7" fill-opacity="0.5"/>
<path d="M535.962 26.6355L539.803 35.1818L530.413 35.6962L535.962 26.6355Z" fill="#66BDE7" fill-opacity="0.5"/>
<path d="M467.551 68.01L481.385 67.2614L473.172 80.6732L467.551 68.01Z" fill="#66BDE7" fill-opacity="0.5"/>
<path d="M444.354 81.2555L451.131 96.4569L434.479 97.3804L444.354 81.2555Z" fill="#66BDE7" fill-opacity="0.5"/>
<path d="M371.582 124.745L393.69 123.573L380.555 145.021L371.582 124.745Z" fill="#66BDE7" fill-opacity="0.5"/>
<path d="M352.841 134.949L363.102 158.126L337.826 159.469L352.841 134.949Z" fill="#66BDE7" fill-opacity="0.5"/>
<path d="M275.882 181.717L305.753 180.09L288.009 209.064L275.882 181.717Z" fill="#66BDE7" fill-opacity="0.5"/>
<path d="M261.193 189.825L274.205 219.191L242.134 220.948L261.193 189.825Z" fill="#66BDE7" fill-opacity="0.5"/>
<path d="M183.436 232.797L219.694 233.728L200.773 264.627L183.436 232.797Z" fill="#66BDE7" fill-opacity="0.5"/>
<path d="M173.966 236.425L192.565 270.619L153.654 269.595L173.966 236.425Z" fill="#66BDE7" fill-opacity="0.5"/>
<path d="M96.7446 276.405L139.077 277.521L116.954 313.647L96.7446 276.405Z" fill="#66BDE7" fill-opacity="0.5"/>
<path d="M90.3362 279.846L110.588 317.115L68.1603 316.058L90.3362 279.846Z" fill="#66BDE7" fill-opacity="0.5"/>
<path d="M13.7553 322.338L54.6488 323.398L33.2865 358.282L13.7553 322.338Z" fill="#66BDE7" fill-opacity="0.5"/>
<path d="M32.803 376.488L50.7409 409.453L13.199 408.501L32.803 376.488Z" fill="#66BDE7" fill-opacity="0.5"/>
<path d="M14.6316 419.632L48.7528 420.492L30.9334 449.59L14.6316 419.632Z" fill="#66BDE7" fill-opacity="0.5"/>
<path d="M30.1561 479.343L41.7611 500.71L17.4542 500.084L30.1561 479.343Z" fill="#66BDE7" fill-opacity="0.5"/>
<path d="M19.1344 519.087L39.0988 519.586L28.6538 536.643L19.1344 519.087Z" fill="#66BDE7" fill-opacity="0.5"/>
<path d="M27.475 582.06L32.909 592.046L21.5702 591.702L27.475 582.06Z" fill="#66BDE7" fill-opacity="0.5"/>
<path d="M23.1823 618.321L29.9117 618.494L26.3951 624.237L23.1823 618.321Z" fill="#66BDE7" fill-opacity="0.5"/>
<path d="M973.606 531.992L974.531 531.925L973.967 532.846L973.606 531.992Z" fill="#66BDE7" fill-opacity="0.5"/>
<path d="M977.757 494.905L978.401 496.355L976.785 496.492L977.757 494.905Z" fill="#66BDE7" fill-opacity="0.5"/>
<path d="M983.211 422.297L986.806 422.105L984.674 425.586L983.211 422.297Z" fill="#66BDE7" fill-opacity="0.5"/>
<path d="M988.777 384.247L990.588 388.313L986.143 388.547L988.777 384.247Z" fill="#66BDE7" fill-opacity="0.5"/>
<path d="M999.71 274.31L1002.21 279.852L996.105 280.196L999.71 274.31Z" fill="#66BDE7" fill-opacity="0.5"/>
<path d="M969.082 259.566L975.888 259.229L971.875 265.782L969.082 259.566Z" fill="#66BDE7" fill-opacity="0.5"/>
<path d="M918.594 223.368L921.814 230.619L913.891 231.047L918.594 223.368Z" fill="#66BDE7" fill-opacity="0.5"/>
<path d="M887.058 209.335L895.554 208.836L890.476 217.129L887.058 209.335Z" fill="#66BDE7" fill-opacity="0.5"/>
<path d="M837.449 172.761L841.247 181.281L831.931 181.771L837.449 172.761Z" fill="#66BDE7" fill-opacity="0.5"/>
<path d="M805.42 159.341L814.778 158.878L809.23 167.939L805.42 159.341Z" fill="#66BDE7" fill-opacity="0.5"/>
<path d="M756.208 123.081L759.995 131.524L750.722 132.039L756.208 123.081Z" fill="#66BDE7" fill-opacity="0.5"/>
<path d="M724.383 109.715L733.316 109.273L728.018 117.924L724.383 109.715Z" fill="#66BDE7" fill-opacity="0.5"/>
<path d="M674.92 73.8625L678.314 81.5019L669.967 81.9506L674.92 73.8625Z" fill="#66BDE7" fill-opacity="0.5"/>
<path d="M643.731 60.3238L651.419 59.8937L646.811 67.4186L643.731 60.3238Z" fill="#66BDE7" fill-opacity="0.5"/>
<path d="M593.623 24.8522L596.548 31.4299L589.36 31.8141L593.623 24.8522Z" fill="#66BDE7" fill-opacity="0.5"/>
<path d="M562.693 10.6974L569.999 10.3145L565.673 17.3787L562.693 10.6974Z" fill="#66BDE7" fill-opacity="0.5"/>
<path d="M503.763 13.111L513.503 12.6005L507.704 22.0706L503.763 13.111Z" fill="#66BDE7" fill-opacity="0.5"/>
<path d="M478.364 28.3169L483.069 39.0115L471.436 39.6299L478.364 28.3169Z" fill="#66BDE7" fill-opacity="0.5"/>
<path d="M408.491 70.3445L425.07 69.4459L415.226 85.5197L408.491 70.3445Z" fill="#66BDE7" fill-opacity="0.5"/>
<path d="M386.755 82.936L394.429 100.235L375.501 101.313L386.755 82.936Z" fill="#66BDE7" fill-opacity="0.5"/>
<path d="M312.706 127.262L337.163 125.91L322.649 149.611L312.706 127.262Z" fill="#66BDE7" fill-opacity="0.5"/>
<path d="M295.144 137.272L305.972 161.641L279.345 163.072L295.144 137.272Z" fill="#66BDE7" fill-opacity="0.5"/>
<path d="M217.509 184.471L248.624 182.832L230.159 212.983L217.509 184.471Z" fill="#66BDE7" fill-opacity="0.5"/>
<path d="M203.544 191.686L217.385 222.968L183.261 224.806L203.544 191.686Z" fill="#66BDE7" fill-opacity="0.5"/>
<path d="M127.555 230.808L165.657 231.808L145.764 264.292L127.555 230.808Z" fill="#66BDE7" fill-opacity="0.5"/>
<path d="M119.026 234.247L138.226 269.576L98.0308 268.53L119.026 234.247Z" fill="#66BDE7" fill-opacity="0.5"/>
<path d="M42.3637 275.334L83.4811 276.413L61.9876 311.511L42.3637 275.334Z" fill="#66BDE7" fill-opacity="0.5"/>
<path d="M35.3206 279.329L54.8518 315.273L13.9582 314.213L35.3206 279.329Z" fill="#66BDE7" fill-opacity="0.5"/>
<path d="M6.5701 327.721L24.8552 361.369L-13.4275 360.376L6.5701 327.721Z" fill="#66BDE7" fill-opacity="0.5"/>
<path d="M-12.7696 370.56L23.6432 371.528L4.61656 402.597L-12.7696 370.56Z" fill="#66BDE7" fill-opacity="0.5"/>
<path d="M3.98096 428.076L17.9759 453.912L-11.3716 453.146L3.98096 428.076Z" fill="#66BDE7" fill-opacity="0.5"/>
<path d="M-9.40759 469.376L15.1924 470.004L2.33298 491.002L-9.40759 469.376Z" fill="#66BDE7" fill-opacity="0.5"/>
<path d="M1.29993 530.793L9.14997 545.205L-7.28176 544.806L1.29993 530.793Z" fill="#66BDE7" fill-opacity="0.5"/>
<path d="M-5.70294 568.4L6.36001 568.716L0.0877848 578.958L-5.70294 568.4Z" fill="#66BDE7" fill-opacity="0.5"/>
<path d="M-1.34192 633.06L0.684206 636.776L-3.54638 636.66L-1.34192 633.06Z" fill="#66BDE7" fill-opacity="0.5"/>
<path d="M1007.46 475.65L1009.32 475.593L1008.23 477.385L1007.46 475.65Z" fill="#66BDE7" fill-opacity="0.5"/>
<path d="M1012.11 438.234L1013.21 440.669L1010.54 440.794L1012.11 438.234Z" fill="#66BDE7" fill-opacity="0.5"/>
<path d="M1017.25 366.139L1021.42 365.876L1018.94 369.92L1017.25 366.139Z" fill="#66BDE7" fill-opacity="0.5"/>
<path d="M1023.08 328.039L1025.04 332.338L1020.26 332.646L1023.08 328.039Z" fill="#66BDE7" fill-opacity="0.5"/>
<path d="M1057.35 272.372L1059.08 276.179L1054.87 276.416L1057.35 272.372Z" fill="#66BDE7" fill-opacity="0.5"/>
<path d="M1027.67 256.943L1032.73 256.664L1029.72 261.578L1027.67 256.943Z" fill="#66BDE7" fill-opacity="0.5"/>
<path d="M976.243 221.507L978.644 226.92L972.732 227.241L976.243 221.507Z" fill="#66BDE7" fill-opacity="0.5"/>
<path d="M945.903 206.869L952.092 206.577L948.425 212.566L945.903 206.869Z" fill="#66BDE7" fill-opacity="0.5"/>
<path d="M895.07 171.236L897.821 177.425L891.058 177.788L895.07 171.236Z" fill="#66BDE7" fill-opacity="0.5"/>
<path d="M864.308 156.902L871.262 156.515L867.124 163.272L864.308 156.902Z" fill="#66BDE7" fill-opacity="0.5"/>
<path d="M813.837 121.349L816.697 127.745L809.699 128.106L813.837 121.349Z" fill="#66BDE7" fill-opacity="0.5"/>
<path d="M783.056 107.144L790.053 106.783L785.915 113.54L783.056 107.144Z" fill="#66BDE7" fill-opacity="0.5"/>
<path d="M732.577 71.7968L735.316 77.9086L728.627 78.2467L732.577 71.7968Z" fill="#66BDE7" fill-opacity="0.5"/>
<path d="M702.019 57.5177L708.591 57.1782L704.703 63.5258L702.019 57.5177Z" fill="#66BDE7" fill-opacity="0.5"/>
<path d="M651.29 22.5791L653.679 27.914L647.841 28.21L651.29 22.5791Z" fill="#66BDE7" fill-opacity="0.5"/>
<path d="M621.281 8.07364L626.811 7.79993L623.551 13.1237L621.281 8.07364Z" fill="#66BDE7" fill-opacity="0.5"/>
<path d="M444.887 15.628L456.945 14.9886L449.798 26.66L444.887 15.628Z" fill="#66BDE7" fill-opacity="0.5"/>
<path d="M420.766 29.9976L426.41 42.8157L412.427 43.6141L420.766 29.9976Z" fill="#66BDE7" fill-opacity="0.5"/>
<path d="M349.946 72.9941L368.182 71.985L357.336 89.6969L349.946 72.9941Z" fill="#66BDE7" fill-opacity="0.5"/>
<path d="M329.078 85.1324L337.384 103.804L316.946 104.943L329.078 85.1324Z" fill="#66BDE7" fill-opacity="0.5"/>
<path d="M254.503 130.122L279.854 128.754L264.806 153.325L254.503 130.122Z" fill="#66BDE7" fill-opacity="0.5"/>
<path d="M237.418 139.932L248.498 164.947L221.18 166.449L237.418 139.932Z" fill="#66BDE7" fill-opacity="0.5"/>
<path d="M158.889 187.146L191.812 185.346L172.281 217.238L158.889 187.146Z" fill="#66BDE7" fill-opacity="0.5"/>
<path d="M147.646 190.785L163.981 220.882L129.774 219.969L147.646 190.785Z" fill="#66BDE7" fill-opacity="0.5"/>
<path d="M72.188 229.133L111.057 230.132L90.7442 263.301L72.188 229.133Z" fill="#66BDE7" fill-opacity="0.5"/>
<path d="M64.0084 232.964L83.1164 268.059L43.1447 267.033L64.0084 232.964Z" fill="#66BDE7" fill-opacity="0.5"/>
<path d="M-11.6591 274.543L27.5026 275.545L7.03257 308.971L-11.6591 274.543Z" fill="#66BDE7" fill-opacity="0.5"/>
<path d="M-19.6871 279.761L-1.71597 312.864L-39.3698 311.902L-19.6871 279.761Z" fill="#66BDE7" fill-opacity="0.5"/>
<path d="M-22.2701 378.471L-7.13828 406.3L-38.7773 405.427L-22.2701 378.471Z" fill="#66BDE7" fill-opacity="0.5"/>
<path d="M1041.41 419.439L1044.04 419.287L1042.47 421.847L1041.41 419.439Z" fill="#66BDE7" fill-opacity="0.5"/>
<path d="M1046.46 381.846L1047.76 384.824L1044.55 384.969L1046.46 381.846Z" fill="#66BDE7" fill-opacity="0.5"/>
<path d="M1051.58 310.086L1055.71 309.874L1053.24 313.918L1051.58 310.086Z" fill="#66BDE7" fill-opacity="0.5"/>
<path d="M1086.26 254.318L1089.54 254.149L1087.6 257.322L1086.26 254.318Z" fill="#66BDE7" fill-opacity="0.5"/>
<path d="M1033.91 219.518L1035.6 223.299L1031.47 223.511L1033.91 219.518Z" fill="#66BDE7" fill-opacity="0.5"/>
<path d="M1004.49 204.247L1008.94 204.013L1006.3 208.313L1004.49 204.247Z" fill="#66BDE7" fill-opacity="0.5"/>
<path d="M952.711 169.581L954.48 173.62L950.077 173.881L952.711 169.581Z" fill="#66BDE7" fill-opacity="0.5"/>
<path d="M923.196 154.462L927.758 154.229L925.062 158.631L923.196 154.462Z" fill="#66BDE7" fill-opacity="0.5"/>
<path d="M871.479 119.694L873.356 123.941L868.72 124.199L871.479 119.694Z" fill="#66BDE7" fill-opacity="0.5"/>
<path d="M841.944 104.704L846.58 104.446L843.821 108.951L841.944 104.704Z" fill="#66BDE7" fill-opacity="0.5"/>
<path d="M790.227 69.936L792.147 74.2092L787.468 74.4408L790.227 69.936Z" fill="#66BDE7" fill-opacity="0.5"/>
<path d="M760.821 55.0252L765.192 54.8159L762.621 59.0136L760.821 55.0252Z" fill="#66BDE7" fill-opacity="0.5"/>
<path d="M708.967 20.3845L710.767 24.3729L706.396 24.5822L708.967 20.3845Z" fill="#66BDE7" fill-opacity="0.5"/>
<path d="M679.74 5.37252L683.791 5.1082L681.378 9.04986L679.74 5.37252Z" fill="#66BDE7" fill-opacity="0.5"/>
<path d="M386.299 18.2523L400.134 17.5037L391.92 30.9155L386.299 18.2523Z" fill="#66BDE7" fill-opacity="0.5"/>
<path d="M363.057 32.2432L369.365 46.3828L353.872 47.2419L363.057 32.2432Z" fill="#66BDE7" fill-opacity="0.5"/>
<path d="M291.787 75.88L310.844 74.88L299.527 93.3597L291.787 75.88Z" fill="#66BDE7" fill-opacity="0.5"/>
<path d="M271.33 87.6357L280.051 107.265L258.602 108.419L271.33 87.6357Z" fill="#66BDE7" fill-opacity="0.5"/>
<path d="M196.687 133.218L222.155 131.851L207.045 156.525L196.687 133.218Z" fill="#66BDE7" fill-opacity="0.5"/>
<path d="M179.704 142.668L191.067 168.279L163.09 169.799L179.704 142.668Z" fill="#66BDE7" fill-opacity="0.5"/>
<path d="M103.983 184.141L136.64 184.989L119.581 212.844L103.983 184.141Z" fill="#66BDE7" fill-opacity="0.5"/>
<path d="M92.6956 188.719L109.556 219.786L74.2201 218.888L92.6956 188.719Z" fill="#66BDE7" fill-opacity="0.5"/>
<path d="M17.4214 227.828L55.8589 228.857L35.7826 261.64L17.4214 227.828Z" fill="#66BDE7" fill-opacity="0.5"/>
<path d="M9.02026 232.405L27.4077 266.175L-11.0824 265.232L9.02026 232.405Z" fill="#66BDE7" fill-opacity="0.5"/>
<path d="M1075.61 363.305L1078.52 363.183L1076.79 365.998L1075.61 363.305Z" fill="#66BDE7" fill-opacity="0.5"/>
<path d="M1080.79 325.792L1082.13 328.796L1078.81 329.017L1080.79 325.792Z" fill="#66BDE7" fill-opacity="0.5"/>
<path d="M1091.58 217.245L1092.69 219.757L1089.95 219.907L1091.58 217.245Z" fill="#66BDE7" fill-opacity="0.5"/>
<path d="M1062.91 201.517L1065.96 201.345L1064.17 204.263L1062.91 201.517Z" fill="#66BDE7" fill-opacity="0.5"/>
<path d="M1010.38 167.307L1011.57 170.078L1008.59 170.225L1010.38 167.307Z" fill="#66BDE7" fill-opacity="0.5"/>
<path d="M981.698 151.786L984.676 151.639L982.921 154.505L981.698 151.786Z" fill="#66BDE7" fill-opacity="0.5"/>
<path d="M929.117 117.756L930.187 120.241L927.518 120.366L929.117 117.756Z" fill="#66BDE7" fill-opacity="0.5"/>
<path d="M900.618 102.133L903.319 101.957L901.72 104.568L900.618 102.133Z" fill="#66BDE7" fill-opacity="0.5"/>
<path d="M847.876 68.0748L848.935 70.483L846.308 70.6343L847.876 68.0748Z" fill="#66BDE7" fill-opacity="0.5"/>
<path d="M819.365 52.375L822.034 52.2499L820.467 54.8094L819.365 52.375Z" fill="#66BDE7" fill-opacity="0.5"/>
<path d="M766.675 18.137L767.854 20.83L764.951 20.9525L766.675 18.137Z" fill="#66BDE7" fill-opacity="0.5"/>
<path d="M738.028 2.56446L740.963 2.39081L739.238 5.20633L738.028 2.56446Z" fill="#66BDE7" fill-opacity="0.5"/>
<path d="M328.225 21.1898L342.719 20.4227L334.13 34.4489L328.225 21.1898Z" fill="#66BDE7" fill-opacity="0.5"/>
<path d="M305.303 35.2377L311.634 49.5322L296.023 50.39L305.303 35.2377Z" fill="#66BDE7" fill-opacity="0.5"/>
<path d="M233.854 78.9742L253.25 77.9007L241.745 96.6875L233.854 78.9742Z" fill="#66BDE7" fill-opacity="0.5"/>
<path d="M213.599 90.7839L222.278 110.387L200.903 111.516L213.599 90.7839Z" fill="#66BDE7" fill-opacity="0.5"/>
<path d="M138.828 136.287L164.53 134.923L149.263 159.853L138.828 136.287Z" fill="#66BDE7" fill-opacity="0.5"/>
<path d="M121.988 145.12L133.777 171.766L104.715 173.325L121.988 145.12Z" fill="#66BDE7" fill-opacity="0.5"/>
<path d="M48.4892 182.389L82.1792 183.28L64.5959 211.992L48.4892 182.389Z" fill="#66BDE7" fill-opacity="0.5"/>
<path d="M37.7172 186.988L54.8751 218.531L18.953 217.628L37.7172 186.988Z" fill="#66BDE7" fill-opacity="0.5"/>
<path d="M-36.8319 226.836L0.166875 227.809L-19.1747 259.393L-36.8319 226.836Z" fill="#66BDE7" fill-opacity="0.5"/>
<path d="M1109.99 307.356L1112.74 307.206L1111.11 309.868L1109.99 307.356Z" fill="#66BDE7" fill-opacity="0.5"/>
<path d="M1115.07 270.203L1116.08 272.585L1113.5 272.762L1115.07 270.203Z" fill="#66BDE7" fill-opacity="0.5"/>
<path d="M1149.29 214.998L1149.81 216.164L1148.5 216.278L1149.29 214.998Z" fill="#66BDE7" fill-opacity="0.5"/>
<path d="M1121.4 198.764L1122.98 198.678L1122.01 200.265L1121.4 198.764Z" fill="#66BDE7" fill-opacity="0.5"/>
<path d="M1068.08 164.778L1068.94 166.643L1066.86 166.774L1068.08 164.778Z" fill="#66BDE7" fill-opacity="0.5"/>
<path d="M1040.02 148.927L1041.88 148.87L1040.78 150.662L1040.02 148.927Z" fill="#66BDE7" fill-opacity="0.5"/>
<path d="M986.782 115.482L987.349 116.673L985.999 116.762L986.782 115.482Z" fill="#66BDE7" fill-opacity="0.5"/>
<path d="M959.066 99.3531L960.342 99.2899L959.558 100.57L959.066 99.3531Z" fill="#66BDE7" fill-opacity="0.5"/>
<path d="M905.542 65.8015L906.097 66.9157L904.79 67.0301L905.542 65.8015Z" fill="#66BDE7" fill-opacity="0.5"/>
<path d="M877.857 49.6216L879.059 49.5833L878.306 50.8119L877.857 49.6216Z" fill="#66BDE7" fill-opacity="0.5"/>
<path d="M824.342 15.8638L824.974 17.2365L823.433 17.3483L824.342 15.8638Z" fill="#66BDE7" fill-opacity="0.5"/>
<path d="M796.348 -0.294287L798.166 -0.377232L797.069 1.41448L796.348 -0.294287Z" fill="#66BDE7" fill-opacity="0.5"/>
<path d="M270.837 24.5482L284.554 23.7982L276.404 37.1077L270.837 24.5482Z" fill="#66BDE7" fill-opacity="0.5"/>
<path d="M247.501 38.6946L253.689 52.5494L238.504 53.3862L247.501 38.6946Z" fill="#66BDE7" fill-opacity="0.5"/>
<path d="M176.252 82.2017L195.265 81.1754L183.98 99.6039L176.252 82.2017Z" fill="#66BDE7" fill-opacity="0.5"/>
<path d="M155.766 94.2917L164.246 113.352L143.414 114.461L155.766 94.2917Z" fill="#66BDE7" fill-opacity="0.5"/>
<path d="M80.3369 139.041L107.538 137.539L91.3934 163.902L80.3369 139.041Z" fill="#66BDE7" fill-opacity="0.5"/>
<path d="M66.3237 143.93L80.2854 169.628L51.0499 168.871L66.3237 143.93Z" fill="#66BDE7" fill-opacity="0.5"/>
<path d="M-6.96433 180.662L27.7167 181.571L9.60857 211.141L-6.96433 180.662Z" fill="#66BDE7" fill-opacity="0.5"/>
<path d="M-17.264 185.55L-0.106061 217.094L-36.0282 216.191L-17.264 185.55Z" fill="#66BDE7" fill-opacity="0.5"/>
<path d="M1144.76 251.644L1146.49 251.508L1145.46 253.198L1144.76 251.644Z" fill="#66BDE7" fill-opacity="0.5"/>
<path d="M1179.77 196.01L1180.01 196.012L1179.85 196.268L1179.77 196.01Z" fill="#66BDE7" fill-opacity="0.5"/>
<path d="M1125.8 162.325L1126.2 163.205L1125.2 163.297L1125.8 162.325Z" fill="#66BDE7" fill-opacity="0.5"/>
<path d="M1098.18 146.041L1099.22 145.976L1098.59 147L1098.18 146.041Z" fill="#66BDE7" fill-opacity="0.5"/>
<path d="M1044.53 112.695L1044.87 113.394L1044.09 113.411L1044.53 112.695Z" fill="#66BDE7" fill-opacity="0.5"/>
<path d="M1017.18 96.4416L1017.65 96.4467L1017.37 96.9075L1017.18 96.4416Z" fill="#66BDE7" fill-opacity="0.5"/>
<path d="M963.291 63.2982L963.356 63.4793L963.134 63.5542L963.291 63.2982Z" fill="#66BDE7" fill-opacity="0.5"/>
<path d="M936.101 46.7882L936.292 46.7645L936.135 47.0205L936.101 46.7882Z" fill="#66BDE7" fill-opacity="0.5"/>
<path d="M882.047 13.3344L882.319 13.8527L881.702 13.8974L882.047 13.3344Z" fill="#66BDE7" fill-opacity="0.5"/>
<path d="M281.548 -14.7852L286.056 -4.63385L274.965 -4.03521L281.548 -14.7852Z" fill="#66BDE7" fill-opacity="0.5"/>
<path d="M213.449 27.907L226.285 27.2504L218.667 39.6896L213.449 27.907Z" fill="#66BDE7" fill-opacity="0.5"/>
<path d="M189.669 42.2019L195.585 55.5384L181.017 56.3304L189.669 42.2019Z" fill="#66BDE7" fill-opacity="0.5"/>
<path d="M118.735 85.4808L137.206 84.4743L126.234 102.391L118.735 85.4808Z" fill="#66BDE7" fill-opacity="0.5"/>
<path d="M98.0205 97.0785L106.73 116.63L85.3244 117.811L98.0205 97.0785Z" fill="#66BDE7" fill-opacity="0.5"/>
<path d="M25.0891 135.827L52.9978 136.536L38.4063 160.363L25.0891 135.827Z" fill="#66BDE7" fill-opacity="0.5"/>
<path d="M11.4128 141.416L26.2472 168.768L-4.85827 167.986L11.4128 141.416Z" fill="#66BDE7" fill-opacity="0.5"/>
<path d="M1102.27 109.908L1102.38 110.115L1102.15 110.113L1102.27 109.908Z" fill="#66BDE7" fill-opacity="0.5"/>
<path d="M223.639 -10.4794L227.426 -2.0368L218.153 -1.52106L223.639 -10.4794Z" fill="#66BDE7" fill-opacity="0.5"/>
<path d="M156.072 31.3426L168.088 30.677L160.941 42.3483L156.072 31.3426Z" fill="#66BDE7" fill-opacity="0.5"/>
<path d="M131.899 45.6075L137.597 58.5293L123.529 59.2753L131.899 45.6075Z" fill="#66BDE7" fill-opacity="0.5"/>
<path d="M60.5331 88.3412L79.9718 87.294L68.4042 106.183L60.5331 88.3412Z" fill="#66BDE7" fill-opacity="0.5"/>
<path d="M40.4111 98.6824L50.0824 120.513L26.273 121.769L40.4111 98.6824Z" fill="#66BDE7" fill-opacity="0.5"/>
<path d="M165.789 -6.55884L169.095 0.744601L161.056 1.17091L165.789 -6.55884Z" fill="#66BDE7" fill-opacity="0.5"/>
<path d="M98.3844 34.5174L110.209 33.8753L103.187 45.3419L98.3844 34.5174Z" fill="#66BDE7" fill-opacity="0.5"/>
<path d="M74.1327 48.5243L79.9945 61.7571L65.5432 62.5504L74.1327 48.5243Z" fill="#66BDE7" fill-opacity="0.5"/>
<path d="M1.18494 90.569L23.9095 89.352L10.4611 111.313L1.18494 90.569Z" fill="#66BDE7" fill-opacity="0.5"/>
<path d="M-14.9532 96.043L-2.50863 118.926L-28.5474 118.242L-14.9532 96.043Z" fill="#66BDE7" fill-opacity="0.5"/>
<path d="M108.018 -3.15356L111.075 3.78636L103.535 4.16665L108.018 -3.15356Z" fill="#66BDE7" fill-opacity="0.5"/>
<path d="M40.225 37.4022L52.9005 36.7181L45.3455 49.0549L40.225 37.4022Z" fill="#66BDE7" fill-opacity="0.5"/>
<path d="M16.483 50.3854L23.2062 65.4831L6.67093 66.4079L16.483 50.3854Z" fill="#66BDE7" fill-opacity="0.5"/>
<path d="M50.3126 -0.624146L53.773 7.19641L45.2655 7.61749L50.3126 -0.624146Z" fill="#66BDE7" fill-opacity="0.5"/>
<path d="M-7.33575 1.23718L-3.01392 10.9226L-13.6054 11.4752L-7.33575 1.23718Z" fill="#66BDE7" fill-opacity="0.5"/>
</svg>
