<svg width="473" height="316" viewBox="0 0 473 316" fill="none" xmlns="http://www.w3.org/2000/svg">
<path d="M5.29515 202.375L5.29564 202.377C14.6895 247.187 27.93 272.823 49.1189 282.815C59.7515 287.822 71.4602 288.675 84.0525 287.053C96.667 285.429 110.038 281.34 123.932 276.582C127.715 275.287 131.538 273.94 135.393 272.582C159.667 264.032 185.203 255.037 209.868 255.564C217.683 255.733 227.396 257.433 238.341 259.922C247.943 262.105 258.598 264.919 269.875 267.899C271.473 268.321 273.084 268.746 274.706 269.174C300.895 276.076 330.102 283.512 357.855 286.146C385.64 288.782 411.638 286.569 431.592 274.488C451.42 262.482 465.667 240.487 469.484 202.641C473.314 164.498 467.665 133.781 451.526 107.75C435.364 81.6818 408.542 60.0811 369.584 40.4628C341.843 26.5105 311.132 16.7243 278.335 10.6853L278.332 10.6849C220.676 -0.00309651 172.994 -1.07978 133.395 8.86775C93.8586 18.7995 62.2711 39.7465 36.793 73.341L36.7926 73.3415C5.84013 114.126 -3.84679 159.023 5.29515 202.375Z" stroke="#E0F2FA" stroke-width="4"/>
<path fill-rule="evenodd" clip-rule="evenodd" d="M40.2845 256.874C-54.8868 136.281 158.142 42.6511 249.972 32.0837C335.587 22.2156 416.774 47.1578 443.811 124.704C474.188 212.04 412.035 315.15 313.446 315.616C278.096 315.849 224.179 286.789 165.911 285.079C124.424 283.914 73.0701 298.444 40.2845 256.874Z" fill="#E0F2FA"/>
<path d="M73.2396 38.9914H72.7126V43.7336H73.2396V38.9914Z" fill="#DAF5FF"/>
<path d="M135.067 133.307C142.677 135.214 149.302 149.795 153.572 160.417C157.843 171.038 163.952 187.335 163.952 187.335L191.133 185.619L192.321 203.565C192.321 203.565 155.332 212.605 149.873 207.749C144.415 202.892 132.253 174.1 132.253 174.1L135.067 133.307Z" fill="#3D8ACD"/>
<path d="M297.255 241.827L298.728 251.961L288.745 269.2L362.411 275.572C362.411 275.572 386.445 247.187 374.428 221.301L297.255 241.827Z" fill="#00377E"/>
<path d="M358.288 247.373C356.188 246.253 354.845 242.175 354.329 235.61C354.139 232.626 354.108 229.634 354.237 226.647L352.665 227.051C352.584 229.291 352.55 232.496 352.779 235.711C353.319 243.351 355.075 247.788 357.978 248.908C356.03 257.555 353.496 266.066 350.393 274.384L352.011 274.519C353.353 270.833 354.788 266.676 356.119 262.195C361.122 245.581 362.614 233.067 360.572 224.989L359.057 225.381C360.56 231.274 359.918 239.184 358.288 247.373Z" fill="#12122A"/>
<path d="M372.798 236.839C372.663 236.875 372.54 236.945 372.443 237.042C372.346 237.139 372.278 237.26 372.246 237.39L367.274 257.846C367.233 258.018 367.256 258.199 367.34 258.356C367.424 258.513 367.564 258.637 367.734 258.705L371.718 260.292C371.936 259.852 372.166 259.4 372.384 258.937L368.939 257.57L373.659 238.173L377.793 237.071C377.793 236.556 377.793 236.042 377.793 235.528L372.798 236.839Z" fill="#12122A"/>
<path d="M273.286 155.685L262.4 129.552C262.4 129.552 275.261 110.701 302.644 104.676C314.26 102.118 341.262 105.641 347.019 109.164L353.36 150.759C353.36 150.759 367.949 194.16 374.75 212.899C377.062 219.306 378.319 222.773 378.319 222.773L295.103 245.012L273.286 155.685Z" fill="#1FBB6E"/>
<path d="M278.59 169.137C278.502 169.137 278.415 169.12 278.333 169.088C278.252 169.055 278.178 169.007 278.116 168.947C278.053 168.886 278.004 168.815 277.97 168.736C277.936 168.657 277.919 168.572 277.919 168.487V154.44L268.295 139.575C268.249 139.501 268.218 139.42 268.204 139.335C268.19 139.249 268.194 139.162 268.215 139.079C268.236 138.995 268.274 138.916 268.326 138.846C268.378 138.776 268.445 138.717 268.52 138.673C268.596 138.628 268.681 138.598 268.769 138.584C268.857 138.571 268.946 138.575 269.033 138.595C269.119 138.615 269.201 138.652 269.273 138.703C269.344 138.754 269.405 138.818 269.452 138.891L279.157 153.913C279.225 154.017 279.261 154.138 279.261 154.261V168.487C279.261 168.572 279.244 168.657 279.21 168.736C279.176 168.815 279.127 168.886 279.064 168.947C279.002 169.007 278.928 169.055 278.847 169.088C278.765 169.12 278.678 169.137 278.59 169.137Z" fill="#1D9C8B"/>
<path d="M262.339 129.619C257.564 135.584 250.808 167.03 250.808 167.03L276.099 156.757L262.339 129.619Z" fill="#1FBB6E"/>
<path d="M263.454 52.723C263.454 52.723 263.586 60.2167 264.936 75.2712C265.781 84.6578 268.723 51.11 268.723 51.11L263.454 52.723Z" fill="#12122A"/>
<path d="M267.23 76.0759C267.23 76.0759 256.316 71.1423 256.08 80.8383C255.822 91.4936 269.249 86.1031 269.249 86.1031L267.23 76.0759Z" fill="#FFAEAE"/>
<path d="M306.556 107.315L306.992 79.2202C306.992 79.2202 318.296 81.1543 317.703 72.2664C317.178 64.3511 308.602 65.1449 305.125 69.4715C305.125 69.4715 307.998 41.0637 284.105 42.7518C275.618 43.3555 269.57 46.2064 266.897 52.0534C265.567 54.9825 265.612 57.0619 265.589 63.2331C265.467 70.3613 265.751 77.4906 266.439 84.5865C268.53 98.3264 279.476 103.313 286.665 102.832L287.492 111.351C287.492 111.351 288.13 118.819 295.107 117.958C304.465 116.818 306.556 107.315 306.556 107.315Z" fill="#FFAEAE"/>
<path d="M296.253 55.852C296.253 55.852 294.969 65.2852 300.441 68.6623C300.441 68.6623 302.287 72.5909 304.64 72.1519L305.079 69.6416L303.379 61.6493L296.253 55.852Z" fill="#12122A"/>
<path d="M265.134 63.229C265.134 63.229 265.741 80.4103 268.597 87.8858C268.597 87.8858 280.862 76.8126 289.856 79.8499C292.319 80.8571 294.533 82.3869 296.343 84.333L299.457 80.6008L300.255 68.6311L304.449 72.1054C304.449 72.1054 305.64 91.5058 299.952 97.939C294.263 104.372 282.728 105.415 276.703 103.408C270.677 101.402 266.517 94.4422 265.46 86.3279C263.527 71.6459 265.134 63.229 265.134 63.229Z" fill="#12122A"/>
<path d="M274.624 75.3488C275.98 74.9246 276.736 73.4814 276.311 72.1252C275.887 70.7691 274.444 70.0137 273.088 70.4379C271.732 70.8621 270.976 72.3053 271.401 73.6614C271.825 75.0175 273.268 75.773 274.624 75.3488Z" fill="#12122A"/>
<path d="M286.335 73.6497C287.691 73.2255 288.447 71.7822 288.023 70.4261C287.598 69.07 286.155 68.3146 284.799 68.7388C283.443 69.163 282.688 70.6062 283.112 71.9623C283.536 73.3184 284.979 74.0739 286.335 73.6497Z" fill="#12122A"/>
<path d="M307.829 75.3479C307.67 75.3483 307.517 75.2911 307.401 75.1879C307.285 75.0846 307.214 74.9429 307.202 74.7915C307.138 74.0165 307.269 73.238 307.584 72.5216C307.899 71.8052 308.39 71.1717 309.014 70.6745C309.638 70.1774 310.377 69.831 311.17 69.6645C311.963 69.4981 312.786 69.5164 313.57 69.718C313.731 69.76 313.869 69.8617 313.952 70.0009C314.036 70.14 314.058 70.3051 314.014 70.46C313.97 70.6148 313.864 70.7466 313.719 70.8264C313.574 70.9062 313.401 70.9274 313.239 70.8855C312.65 70.7337 312.032 70.7196 311.436 70.8441C310.839 70.9687 310.283 71.2283 309.813 71.6013C309.344 71.9743 308.974 72.4497 308.736 72.9877C308.498 73.5257 308.397 74.1106 308.444 74.6933C308.45 74.7721 308.44 74.8514 308.414 74.9265C308.388 75.0015 308.347 75.071 308.293 75.1308C308.239 75.1906 308.173 75.2396 308.099 75.275C308.026 75.3104 307.945 75.3315 307.863 75.337L307.829 75.3479Z" fill="#12122A"/>
<path d="M311.232 74.2302C311.073 74.231 310.92 74.1682 310.805 74.055L308.961 72.2443C308.902 72.186 308.855 72.1162 308.821 72.0388C308.788 71.9615 308.77 71.8781 308.768 71.7935C308.766 71.7089 308.78 71.6247 308.809 71.5457C308.839 71.4667 308.882 71.3944 308.939 71.3331C308.995 71.2717 309.062 71.2224 309.136 71.188C309.211 71.1536 309.291 71.1348 309.372 71.1327C309.454 71.1305 309.535 71.145 309.611 71.1754C309.687 71.2058 309.756 71.2514 309.815 71.3097L311.659 73.1204C311.774 73.2017 311.859 73.3208 311.901 73.4586C311.943 73.5963 311.938 73.7446 311.889 73.8796C311.84 74.0146 311.748 74.1283 311.629 74.2025C311.51 74.2767 311.37 74.3071 311.232 74.2886V74.2302Z" fill="#12122A"/>
<path d="M283.055 62.7019C282.923 62.7055 282.793 62.6628 282.684 62.5799C282.576 62.497 282.495 62.3783 282.453 62.2415C282.412 62.1048 282.412 61.9571 282.454 61.8203C282.495 61.6836 282.576 61.5651 282.685 61.4823C283.925 60.475 285.384 59.8333 286.919 59.6197C288.455 59.406 290.015 59.6275 291.449 60.2628C291.535 60.2877 291.614 60.3323 291.682 60.3936C291.751 60.4549 291.806 60.5314 291.845 60.618C291.883 60.7046 291.904 60.7992 291.906 60.8955C291.908 60.9917 291.891 61.0873 291.856 61.1757C291.821 61.2641 291.769 61.3433 291.704 61.4079C291.638 61.4725 291.56 61.521 291.476 61.5501C291.391 61.5792 291.302 61.5882 291.214 61.5765C291.126 61.5648 291.042 61.5327 290.966 61.4823C289.737 60.9293 288.397 60.7329 287.077 60.9125C285.757 61.0921 284.502 61.6415 283.437 62.5067C283.335 62.6185 283.199 62.6875 283.055 62.7019Z" fill="#12122A"/>
<path d="M268.287 65.8631C268.171 65.8625 268.057 65.8259 267.959 65.7574C267.86 65.689 267.781 65.5913 267.731 65.4757C267.68 65.3601 267.66 65.2311 267.673 65.1034C267.685 64.9757 267.73 64.8545 267.802 64.7536C268.827 63.4081 270.261 62.5207 271.835 62.2569C273.409 61.9932 275.017 62.371 276.357 63.32C276.494 63.4241 276.587 63.5838 276.616 63.7638C276.646 63.9438 276.61 64.1294 276.515 64.2799C276.421 64.4303 276.276 64.5332 276.113 64.5659C275.95 64.5987 275.782 64.5585 275.646 64.4544C274.57 63.6942 273.28 63.3927 272.017 63.606C270.754 63.8193 269.605 64.533 268.784 65.6137C268.724 65.6943 268.648 65.7587 268.562 65.8019C268.475 65.8451 268.382 65.866 268.287 65.8631Z" fill="#12122A"/>
<path d="M296.669 81.0645C298.503 80.1535 299.251 77.9284 298.34 76.0946C297.429 74.2609 295.204 73.5129 293.37 74.424C291.536 75.3351 290.788 77.5602 291.699 79.3939C292.61 81.2276 294.836 81.9756 296.669 81.0645Z" fill="#FD9595"/>
<path d="M272.66 83.9365C274.494 83.0254 275.242 80.8003 274.331 78.9666C273.42 77.1328 271.195 76.3849 269.361 77.2959C267.527 78.207 266.779 80.4321 267.69 82.2659C268.602 84.0996 270.827 84.8476 272.66 83.9365Z" fill="#FD9595"/>
<path d="M277.732 80.0672C277.633 80.0659 277.535 80.0419 277.447 79.9972C277.359 79.9524 277.282 79.8882 277.225 79.8096C276.969 79.5209 276.788 79.1775 276.696 78.8076C276.603 78.4377 276.603 78.0518 276.694 77.6816C276.951 76.9841 277.476 76.4101 278.159 76.08L279.047 71.1185C279.062 71.0383 279.092 70.9617 279.137 70.893C279.182 70.8243 279.24 70.7648 279.309 70.718C279.378 70.6712 279.455 70.638 279.537 70.6202C279.619 70.6025 279.703 70.6005 279.786 70.6145C279.868 70.6285 279.947 70.6581 280.018 70.7017C280.089 70.7453 280.15 70.8019 280.198 70.8685C280.246 70.9351 280.281 71.0102 280.299 71.0896C280.317 71.169 280.319 71.2511 280.305 71.3313L279.359 76.6064C279.342 76.7098 279.298 76.8072 279.231 76.8895C279.165 76.9718 279.078 77.0363 278.978 77.0768C278.511 77.2573 278.135 77.6066 277.928 78.0512C277.896 78.239 277.909 78.4314 277.965 78.6138C278.021 78.7962 278.119 78.9638 278.251 79.104C278.322 79.1955 278.365 79.3044 278.376 79.4183C278.386 79.5322 278.364 79.6468 278.311 79.7491C278.259 79.8514 278.178 79.9375 278.077 79.9976C277.977 80.0578 277.862 80.0896 277.744 80.0896L277.732 80.0672Z" fill="#12122A"/>
<path d="M279.398 86.3691C279.215 86.3473 279.046 86.2613 278.924 86.1273C278.801 85.9934 278.734 85.8207 278.734 85.6419C278.734 85.463 278.801 85.2904 278.924 85.1564C279.046 85.0225 279.215 84.9365 279.398 84.9147C282.513 84.9147 284.081 83.9414 284.634 81.6997C284.681 81.5126 284.802 81.351 284.971 81.2506C285.14 81.1501 285.344 81.1189 285.537 81.1638C285.73 81.2088 285.897 81.3262 286 81.4903C286.104 81.6543 286.136 81.8516 286.09 82.0386C285.368 84.9475 283.19 86.4128 279.398 86.4128V86.3691Z" fill="white"/>
<path d="M291.241 54.2416C301.205 59.0598 304.933 69.5518 304.933 69.5518C304.933 69.5518 307.811 66.9963 309.949 66.501C309.949 66.501 312.647 52.0914 312.445 50.2902C312.244 48.489 298.619 35.8806 297.723 35.0475C296.828 34.2145 283.751 29.8803 282.923 30.0379C282.094 30.1955 269.354 34.5409 268.996 35.2164C268.637 35.8918 263.454 52.8119 263.454 52.8119C263.454 52.8119 280.975 49.2657 291.241 54.2416Z" fill="#1FBB6E"/>
<path d="M199.623 241.851C196.58 245.254 196.191 249.293 198.776 251.198C201.361 253.104 197.461 255.384 200.549 256.871C203.638 258.357 202.105 262.701 205.948 262.384C209.792 262.066 211.817 254.307 211.817 254.307L199.623 241.851Z" fill="#FFAEAE"/>
<path d="M208.465 176.842L182.676 184.481L205.277 260.78L231.066 253.141L208.465 176.842Z" fill="#E7AD00"/>
<path d="M198.497 180.642L191.627 182.646L196.195 198.307L203.065 196.303L198.497 180.642Z" fill="#FFD600"/>
<path d="M276.007 156.84L208.477 176.844L231.077 253.143L298.608 233.14L276.007 156.84Z" fill="#FFD600"/>
<path d="M247.332 165.335L237.142 168.353L259.742 244.653L269.933 241.634L247.332 165.335Z" fill="#FFF04A"/>
<path d="M235.841 232.75L230.585 234.308L232.161 239.629L237.418 238.072L235.841 232.75Z" fill="#E7AD00"/>
<path d="M251.698 238.403L232.435 244.021L232.932 245.725L252.195 240.107L251.698 238.403Z" fill="#E7AD00"/>
<path d="M253.435 240.793L234.196 246.492L234.7 248.194L253.939 242.495L253.435 240.793Z" fill="#E7AD00"/>
<path d="M201.389 219.346L196.326 220.846L198.275 227.427L203.338 225.928L201.389 219.346Z" fill="#D99C00"/>
<path d="M208.287 218.176L203.217 219.655L205.139 226.244L210.209 224.766L208.287 218.176Z" fill="#D99C00"/>
<path d="M215.833 215.977L210.764 217.456L212.686 224.046L217.755 222.567L215.833 215.977Z" fill="#D99C00"/>
<path d="M204.175 261.812C206.72 262.617 209.992 255.189 209 254.094C208.009 253 205.696 254.82 205.696 254.82C205.696 254.82 207.899 251.47 206.797 249.582C205.927 248.13 203.647 250.286 203.647 250.286C203.647 250.286 205.134 245.572 204.153 244.065C203.173 242.557 201.873 245.249 201.873 245.249C201.873 245.249 201.378 237.039 198.117 244.366L200.1 249.482L201.983 255.066L204.175 261.812Z" fill="#FFAEAE"/>
<path d="M283.366 218.14L278.43 219.563C278.43 219.563 268.379 221.973 266.893 223.666C265.408 225.359 257.724 231.233 258.808 231.693C259.511 231.995 264.112 230.426 267.262 229.283C266.77 229.922 266.257 230.617 265.687 231.39C264.883 232.511 256.753 244.618 258.406 245.807C259.288 246.928 262.929 244.047 262.929 244.047C262.929 244.047 264.313 247.41 269.719 244.54C270.09 244.344 270.439 244.107 270.757 243.834C271.373 243.449 271.936 242.985 272.433 242.455C272.601 243.332 273.066 244.125 273.75 244.697C274.789 245.403 277.168 242.724 277.168 242.724L289.799 225.908L283.366 218.14Z" fill="#FFAEAE"/>
<path d="M283.477 218.307L324.454 180.523L347.548 110.124C347.548 110.124 357.485 128.377 357.767 146.293C358.048 164.21 342.089 191.657 342.089 191.657C342.089 191.657 330.059 209.17 289.97 226.044L283.477 218.307Z" fill="#FFAEAE"/>
<path d="M347.093 109.07C356.014 113.833 359.302 136.669 359.851 148.194C360.401 159.719 352.165 177.568 352.165 177.568L327.736 161.404L347.093 109.07Z" fill="#1FBB6E"/>
<path d="M291.38 54.1057C286.339 52.8208 263.724 56.3403 263.724 56.3403C263.724 56.3403 241.065 57.1895 244.268 50.9102C247.472 44.6309 266.043 45.1113 276.09 47.413C281.533 48.7542 286.705 51.018 291.38 54.1057Z" fill="#1D9C8B"/>
<path d="M330.498 159.118C330.43 159.129 330.361 159.129 330.294 159.118C330.129 159.064 329.993 158.947 329.914 158.792C329.836 158.638 329.822 158.458 329.876 158.294L344.36 113.778C344.382 113.691 344.422 113.61 344.477 113.539C344.532 113.468 344.601 113.409 344.679 113.366C344.758 113.323 344.845 113.296 344.934 113.288C345.024 113.28 345.114 113.29 345.199 113.318C345.284 113.345 345.363 113.391 345.43 113.45C345.497 113.51 345.552 113.582 345.59 113.663C345.627 113.745 345.648 113.833 345.651 113.923C345.653 114.012 345.637 114.101 345.603 114.185L331.119 158.7C331.071 158.825 330.985 158.932 330.874 159.006C330.763 159.081 330.632 159.12 330.498 159.118Z" fill="#1D9C8B"/>
<path d="M353.111 178.095H352.943C352.866 178.072 352.794 178.032 352.731 177.979C352.668 177.926 352.616 177.86 352.577 177.785C352.538 177.71 352.513 177.628 352.504 177.543C352.495 177.458 352.502 177.371 352.524 177.289L355.016 167.97C355.071 167.819 355.177 167.696 355.312 167.624C355.448 167.552 355.604 167.537 355.75 167.582C355.895 167.627 356.02 167.728 356.099 167.866C356.178 168.004 356.206 168.169 356.178 168.328L353.686 177.647C353.647 177.777 353.57 177.89 353.466 177.971C353.363 178.051 353.238 178.094 353.111 178.095Z" fill="#1D9C8B"/>
<path d="M301.498 250.808C301.384 250.808 301.272 250.778 301.174 250.723C301.075 250.667 300.995 250.587 300.94 250.492C300.886 250.397 300.86 250.289 300.864 250.181C300.869 250.072 300.904 249.967 300.967 249.876L304.433 244.766C304.523 244.63 304.666 244.535 304.831 244.5C304.996 244.465 305.168 244.493 305.311 244.579C305.453 244.665 305.554 244.801 305.591 244.957C305.628 245.114 305.597 245.277 305.507 245.413L302.041 250.523C301.984 250.611 301.904 250.683 301.809 250.733C301.714 250.783 301.607 250.809 301.498 250.808Z" fill="#12122A"/>
<path d="M132.444 117.928C133.49 120.735 135.747 123.259 138.576 123.823C136.983 121.948 135.791 119.751 135.08 117.374C134.369 114.998 134.153 112.495 134.448 110.028C134.69 108.055 135.262 106.139 135.439 104.167C135.582 103.18 135.534 102.174 135.296 101.207C135.058 100.24 134.635 99.3304 134.051 98.5315C134.657 99.2528 133.347 102.961 133.071 103.784C132.401 105.243 131.834 106.749 131.376 108.292C130.943 111.545 131.31 114.857 132.444 117.928Z" fill="#004581"/>
<path d="M76.4282 220.247C72.6282 239.135 70.8637 258.379 71.1652 277.647C71.1652 277.647 103.785 296.994 148.588 283.342C148.588 283.342 136.27 225.526 136.27 226.212C136.27 226.899 76.4282 220.247 76.4282 220.247Z" fill="#00377E"/>
<path d="M118.478 59.3833C110.4 56.112 101.382 56.0797 93.2818 59.2932C89.2871 60.9376 85.7164 63.4726 82.8396 66.7068C79.9627 69.9409 77.8549 73.7897 76.6753 77.9623C75.554 82.1648 75.554 86.5476 75.027 90.8627C74.4999 95.1779 73.4011 99.6058 70.5417 102.873C67.0769 106.873 61.2125 108.968 59.4856 113.993C58.1176 117.993 59.9566 122.331 62.0198 126.015C64.083 129.699 66.505 133.541 66.2471 137.766C65.9892 141.991 63.2981 145.473 61.7619 149.36C59.0147 156.492 63.1747 178.338 74.8476 172.31C73.1535 172.296 71.4925 171.838 70.0292 170.98C68.5659 170.122 67.351 168.895 66.505 167.421C65.8274 166.013 65.5645 164.439 65.7473 162.886C65.9301 161.333 66.5509 159.865 67.5366 158.655C66.4153 160.165 66.8526 162.474 68.0973 163.928C69.4545 165.279 71.0672 166.344 72.8404 167.06C74.6353 167.773 76.1911 168.984 77.3256 170.553C78.3124 172.198 78.1891 174.654 76.5968 175.69C76.0361 176.062 75.3521 176.22 74.7579 176.535C72.3807 177.809 72.1228 181.403 73.6365 183.633C75.1503 185.864 77.819 187.013 80.3644 187.701C90.5459 190.484 100.021 186.574 109.574 182.067C117.424 178.372 125.273 173.933 130.352 166.891C137.08 157.506 137.809 144.763 134.714 133.598C133.077 127.683 130.442 121.959 130.005 115.83C129.074 102.862 138.078 90.2769 135.432 77.5229C133.727 68.9714 126.551 62.5268 118.478 59.3833Z" fill="#004581"/>
<path d="M135.096 133.523C132.271 132.163 119.522 128.218 108.471 128.038C101.473 129.175 94.562 130.793 87.7877 132.882C86.1785 133.422 84.2655 142.098 82.3862 153.954C78.0087 181.478 73.7663 226.174 73.7663 226.174C73.7663 226.174 95.3273 240.289 139.395 229.118L141.06 176.016L142.264 160.743L135.096 133.523Z" fill="#3D8ACD"/>
<path d="M101.352 131.111L93.8947 104.295C93.8947 104.295 83.5086 108.921 81.8414 100.308C80.3657 92.5935 88.8031 91.2122 93.2301 94.4913C93.2301 94.4913 83.3396 67.9895 106.748 63.6324C130.156 59.2753 133.389 91.4818 134.211 99.2639C135.653 112.986 126.382 120.499 119.297 121.847L120.637 130.213C120.637 130.213 121.899 137.534 115.005 138.455C105.689 139.69 101.352 131.111 101.352 131.111Z" fill="#FFAEAE"/>
<path d="M131.2 91.2942C131.2 91.2942 140.363 84.0626 142.941 92.9528C145.776 102.728 131.713 101.058 131.713 101.058L131.2 91.2942Z" fill="#FFAEAE"/>
<path d="M114.461 92.808C114.528 91.4073 113.447 90.2175 112.046 90.1504C110.645 90.0834 109.455 91.1645 109.388 92.5652C109.321 93.9659 110.403 95.1557 111.803 95.2228C113.204 95.2898 114.394 94.2087 114.461 92.808Z" fill="#12122A"/>
<path d="M126.905 91.5183C126.973 90.1176 125.892 88.9276 124.491 88.8603C123.09 88.793 121.9 89.874 121.833 91.2747C121.766 92.6753 122.847 93.8653 124.247 93.9326C125.648 93.9999 126.838 92.919 126.905 91.5183Z" fill="#12122A"/>
<path d="M118.107 100.112C117.958 100.105 117.817 100.043 117.707 99.9356C117.597 99.8284 117.526 99.6835 117.506 99.5261C117.487 99.3686 117.519 99.2088 117.598 99.0745C117.678 98.9401 117.799 98.8398 117.94 98.7911C119.084 98.4025 119.655 97.9805 119.853 97.3698C120.165 96.426 119.624 94.7826 118.273 92.6396C118.211 92.4935 118.199 92.3285 118.24 92.1741C118.281 92.0197 118.372 91.8859 118.497 91.7966C118.622 91.7072 118.772 91.6681 118.922 91.6863C119.071 91.7044 119.209 91.7786 119.312 91.8956C120.955 94.5161 121.495 96.4038 121.027 97.8251C120.77 98.3991 120.39 98.8997 119.916 99.2858C119.443 99.6719 118.89 99.9324 118.304 100.046C118.242 100.079 118.175 100.102 118.107 100.112Z" fill="#12122A"/>
<path d="M118.871 103.801C116.893 103.722 114.996 102.999 113.469 101.743C113.356 101.628 113.291 101.475 113.285 101.314C113.279 101.153 113.333 100.995 113.437 100.872C113.541 100.748 113.687 100.668 113.847 100.646C114.007 100.623 114.17 100.661 114.304 100.752C115.751 101.943 117.584 102.568 119.46 102.511C119.546 102.503 119.632 102.514 119.714 102.542C119.795 102.569 119.87 102.614 119.933 102.672C119.997 102.73 120.047 102.801 120.082 102.88C120.116 102.958 120.134 103.043 120.134 103.129C120.139 103.3 120.078 103.466 119.962 103.592C119.845 103.717 119.684 103.792 119.513 103.801H118.871Z" fill="#12122A"/>
<path d="M133.593 99.5856C133.403 99.5768 133.224 99.5001 133.092 99.3712C132.961 99.2424 132.888 99.0713 132.888 98.8935C132.908 96.7237 132.696 94.5575 132.255 92.4269C132.242 92.2575 132.295 92.0893 132.405 91.9542C132.516 91.8192 132.676 91.7268 132.854 91.6945C133.033 91.6623 133.219 91.6925 133.375 91.7794C133.531 91.8664 133.648 92.004 133.703 92.166C134.16 94.3865 134.38 96.6438 134.36 98.9049C134.356 99.0864 134.277 99.2595 134.138 99.3869C133.999 99.5142 133.812 99.5856 133.618 99.5856H133.593Z" fill="#12122A"/>
<path d="M133.959 95.8969C133.795 95.8867 133.639 95.8064 133.52 95.6707C133.401 95.535 133.327 95.3527 133.31 95.157C133.294 94.9613 133.337 94.7651 133.431 94.6038C133.525 94.4426 133.664 94.3271 133.824 94.2781L137.138 93.3069C137.229 93.2698 137.324 93.2556 137.419 93.2653C137.515 93.275 137.607 93.3082 137.691 93.363C137.775 93.4177 137.848 93.4927 137.906 93.5833C137.965 93.6738 138.006 93.7779 138.029 93.8888C138.052 93.9998 138.055 94.1152 138.039 94.2278C138.022 94.3403 137.986 94.4475 137.933 94.5425C137.88 94.6375 137.811 94.7182 137.73 94.7795C137.65 94.8409 137.56 94.8814 137.465 94.8987L134.151 95.8699L133.959 95.8969Z" fill="#12122A"/>
<path d="M91.524 100.639C91.3766 100.632 91.2359 100.574 91.1249 100.476C91.014 100.378 90.9392 100.245 90.9127 100.099C90.8139 99.5479 90.5855 99.0289 90.2467 98.5854C89.9078 98.1418 89.4684 97.7866 88.9653 97.5494C88.4622 97.3123 87.9099 97.2002 87.355 97.2225C86.8 97.2448 86.2584 97.4008 85.7755 97.6775C85.6257 97.752 85.4533 97.7659 85.2936 97.7164C85.1339 97.6668 84.9991 97.5576 84.9168 97.411C84.8345 97.2645 84.8109 97.0918 84.851 96.9283C84.891 96.7648 84.9916 96.6229 85.132 96.5318C85.7958 96.1491 86.5411 95.9329 87.3051 95.9011C88.0692 95.8694 88.8296 96.0232 89.5223 96.3495C90.2151 96.6758 90.8199 97.1651 91.2858 97.7762C91.7518 98.3873 92.0652 99.1023 92.1997 99.861C92.2279 100.031 92.1886 100.206 92.0903 100.348C91.9921 100.489 91.8426 100.586 91.6742 100.618L91.524 100.639Z" fill="#12122A"/>
<path d="M88.6159 100.113C88.5022 100.107 88.3919 100.07 88.2958 100.004C88.1997 99.9393 88.1213 99.8486 88.0682 99.7413C88.0151 99.634 87.9893 99.5137 87.9932 99.3925C87.9971 99.2713 88.0306 99.1532 88.0905 99.05L89.3559 96.8906C89.3885 96.7914 89.4418 96.7013 89.5118 96.6271C89.5818 96.553 89.6666 96.4966 89.7599 96.4623C89.8532 96.428 89.9526 96.4167 90.0506 96.4291C90.1486 96.4416 90.2427 96.4775 90.3258 96.5342C90.4089 96.5908 90.479 96.6668 90.5306 96.7564C90.5823 96.8461 90.6142 96.947 90.6241 97.0516C90.6339 97.1562 90.6214 97.2619 90.5875 97.3606C90.5536 97.4594 90.4991 97.5487 90.4282 97.6219L89.1628 99.7812C89.1052 99.881 89.0248 99.9636 88.9292 100.022C88.8337 100.079 88.7259 100.111 88.6159 100.113Z" fill="#12122A"/>
<path d="M106.225 85.3571C106.048 85.3712 105.871 85.3167 105.725 85.2023C105.578 85.0878 105.47 84.9203 105.417 84.7267C105.364 84.5332 105.37 84.325 105.434 84.1359C105.498 83.9469 105.617 83.788 105.77 83.6851C106.985 82.641 108.417 81.9752 109.926 81.7532C111.435 81.5311 112.969 81.7604 114.377 82.4185C114.473 82.4643 114.561 82.5312 114.634 82.6155C114.708 82.6997 114.766 82.7997 114.806 82.9097C114.846 83.0197 114.866 83.1375 114.866 83.2564C114.866 83.3753 114.845 83.493 114.805 83.6028C114.765 83.7126 114.706 83.8123 114.632 83.8962C114.558 83.9801 114.47 84.0466 114.374 84.0919C114.278 84.1372 114.174 84.1604 114.07 84.1601C113.966 84.1599 113.862 84.1362 113.766 84.0905C112.613 83.566 111.362 83.3873 110.131 83.5713C108.9 83.7554 107.731 84.296 106.736 85.1417C106.593 85.2804 106.412 85.3568 106.225 85.3571Z" fill="#12122A"/>
<path d="M120.368 84.3041C120.219 84.2999 120.075 84.2563 119.951 84.1784C119.828 84.1006 119.731 83.9917 119.672 83.8646C119.613 83.7375 119.594 83.5974 119.617 83.4606C119.641 83.3239 119.705 83.1961 119.804 83.0924C120.855 82.0103 122.299 81.3275 123.86 81.1758C125.42 81.0241 126.986 81.4142 128.255 82.2709C128.337 82.3289 128.406 82.4013 128.458 82.484C128.51 82.5668 128.544 82.6582 128.558 82.753C128.571 82.8479 128.565 82.9444 128.539 83.037C128.512 83.1296 128.467 83.2164 128.404 83.2926C128.342 83.3688 128.264 83.4329 128.175 83.4811C128.086 83.5293 127.987 83.5607 127.885 83.5736C127.783 83.5864 127.679 83.5805 127.579 83.5561C127.479 83.5317 127.386 83.4893 127.304 83.4313C126.353 82.808 125.19 82.5268 124.032 82.6402C122.874 82.7535 121.8 83.2536 121.01 84.0474C120.932 84.1332 120.833 84.2011 120.722 84.2456C120.61 84.2902 120.489 84.3102 120.368 84.3041Z" fill="#12122A"/>
<path d="M119.449 121.834C114.685 123.037 104.855 119.608 104.855 119.608C104.855 119.608 111.28 125.608 120.135 125.931L119.449 121.834Z" fill="#F49A9A"/>
<path d="M110.272 100.039C110.685 98.0649 109.418 96.1306 107.444 95.7186C105.47 95.3066 103.536 96.5728 103.124 98.5468C102.712 100.521 103.978 102.455 105.952 102.867C107.926 103.279 109.86 102.013 110.272 100.039Z" fill="#FD9595"/>
<path d="M132.141 99.0653C132.553 97.0913 131.286 95.157 129.312 94.745C127.338 94.3329 125.404 95.5992 124.992 97.5732C124.58 99.5472 125.846 101.482 127.82 101.894C129.794 102.306 131.729 101.039 132.141 99.0653Z" fill="#FD9595"/>
<path d="M104.771 112.696C103.585 112.857 102.379 112.705 101.267 112.257C100.156 111.809 99.178 111.078 98.4275 110.137C96.623 107.872 96.4772 104.656 96.1858 101.734C95.8878 99.0699 94.8936 96.5334 93.3053 94.3851C91.1061 91.227 88.6222 88.2815 85.8855 85.5862L95.5582 64.1949L102.642 60.8769L111.463 59.5406L119.689 62.1565L126.414 65.6217L132.31 74.5904L134.361 82.121L132.881 89.9913C132.881 89.9913 119.432 81.8719 116.686 72.0199C112.301 80.2451 106.742 87.7733 100.187 94.3624C100.598 96.009 100.686 97.721 100.445 99.4016C100.266 101.123 99.8397 102.799 99.6604 104.509C99.398 106.224 99.6518 107.98 100.389 109.548C100.87 110.346 101.506 111.036 102.26 111.577C103.013 112.119 103.868 112.499 104.771 112.696Z" fill="#004581"/>
<path d="M172.299 184.796L176.242 181.503C176.242 181.503 183.86 174.527 186.094 174.248C188.329 173.969 197.477 170.899 197.265 172.015C197.12 172.763 193.244 175.699 190.563 177.663L193.177 177.54C194.528 177.54 209.128 177.54 209.151 179.561C209.597 180.934 205.163 182.329 205.163 182.329C205.163 182.329 207.162 185.365 201.812 188.223C201.457 188.419 201.083 188.576 200.694 188.691C200.032 188.989 199.334 189.199 198.617 189.317C199.249 189.945 199.644 190.774 199.734 191.661C199.734 192.911 196.193 193.391 196.193 193.391L175.192 194.429L172.299 184.796Z" fill="#FFAEAE"/>
<path d="M88.0548 132.849C81.8223 134.902 76.2175 138.457 77.0021 151.915C77.5738 161.761 108.692 208.797 119.195 209.66C129.698 210.524 173.663 199.769 175.557 198.367C177.451 196.965 176.992 194.094 176.992 194.094C176.992 194.094 176.05 182.733 174.279 181.017C172.508 179.301 127.535 187.443 127.535 187.443C127.535 187.443 95.072 130.539 88.0548 132.849Z" fill="#3D8ACD"/>
<path d="M100.195 135.719C100.195 135.719 92.7915 122.923 98.7306 122.242L99.48 124.725C99.48 124.725 113.697 128.217 119.989 125.944L119.478 122.825C119.852 122.732 120.242 122.714 120.624 122.77C121.007 122.827 121.373 122.958 121.702 123.154C122.03 123.351 122.315 123.61 122.537 123.916C122.76 124.222 122.917 124.568 122.998 124.933C123.656 127.679 125.189 136.147 123.759 138.783C122.328 141.419 104.567 143.626 100.195 135.719Z" fill="#3D8ACD"/>
<path d="M125.066 209.182C122.379 209.183 119.695 208.978 117.039 208.567C107.814 207.137 87.4372 177.015 83.7986 168.33C83.7603 168.188 83.7748 168.036 83.8394 167.903C83.9039 167.77 84.0143 167.665 84.1502 167.607C84.2861 167.548 84.4385 167.541 84.5795 167.585C84.7206 167.63 84.8408 167.724 84.9182 167.85C88.3777 176.098 108.541 205.952 117.207 207.304C122.473 208.121 127.835 208.098 133.094 207.237C133.254 207.205 133.421 207.237 133.557 207.327C133.694 207.417 133.789 207.558 133.821 207.718C133.854 207.878 133.822 208.044 133.731 208.181C133.641 208.317 133.5 208.412 133.34 208.444C130.611 208.943 127.841 209.19 125.066 209.182Z" fill="#1E6CAB"/>
<path d="M127.271 188.106C127.165 188.106 127.061 188.08 126.969 188.028C126.876 187.977 126.799 187.903 126.743 187.812L97.0437 139.527C96.9572 139.386 96.9299 139.217 96.9679 139.056C97.0058 138.895 97.1059 138.756 97.246 138.669C97.3861 138.583 97.5548 138.555 97.7151 138.593C97.8753 138.631 98.0139 138.732 98.1003 138.872L127.586 186.808L158.938 181.923C159.1 181.898 159.266 181.938 159.399 182.036C159.532 182.133 159.62 182.279 159.646 182.442C159.671 182.605 159.631 182.772 159.534 182.905C159.437 183.039 159.291 183.128 159.129 183.153L127.372 188.106H127.271Z" fill="#1E6CAB"/>
<path d="M140.344 181.255C140.213 181.264 140.084 181.228 139.975 181.154C139.867 181.079 139.785 180.97 139.741 180.843C139.698 180.716 139.697 180.578 139.737 180.45C139.777 180.322 139.857 180.211 139.964 180.134C140.04 180.067 148.054 173.273 145.991 164.214C143.819 154.83 138.161 142.217 138.106 142.094C138.039 141.945 138.031 141.775 138.085 141.621C138.139 141.466 138.25 141.34 138.394 141.27C138.538 141.2 138.703 141.192 138.853 141.248C139.003 141.304 139.125 141.419 139.192 141.567C139.247 141.69 144.992 154.415 147.153 163.922C149.39 173.743 141.06 180.739 140.702 181.087C140.604 181.183 140.478 181.242 140.344 181.255Z" fill="#1E6CAB"/>
<path d="M111.24 136.995C106.853 137.009 102.549 135.768 98.8174 133.413C98.6796 133.323 98.5821 133.182 98.5464 133.019C98.5108 132.857 98.5399 132.686 98.6274 132.546C98.7148 132.405 98.8535 132.305 99.0129 132.269C99.1723 132.233 99.3393 132.262 99.4772 132.352C102.83 134.425 106.652 135.577 110.57 135.697C114.489 135.817 118.372 134.9 121.84 133.036C121.989 132.956 122.162 132.939 122.322 132.989C122.483 133.04 122.617 133.153 122.696 133.304C122.774 133.456 122.791 133.633 122.741 133.796C122.692 133.96 122.581 134.097 122.433 134.177C118.992 136.057 115.143 137.026 111.24 136.995Z" fill="#1E6CAB"/>
<path d="M102.128 131.2C101.985 131.201 101.847 131.155 101.735 131.069C101.623 130.983 101.546 130.863 101.515 130.729L100.662 127.224C100.639 127.146 100.633 127.064 100.644 126.983C100.655 126.902 100.682 126.825 100.725 126.754C100.768 126.684 100.826 126.623 100.894 126.575C100.962 126.527 101.039 126.492 101.122 126.474C101.204 126.455 101.289 126.453 101.372 126.467C101.456 126.481 101.535 126.512 101.606 126.556C101.676 126.601 101.737 126.659 101.784 126.726C101.831 126.794 101.863 126.871 101.878 126.951L102.73 130.455C102.768 130.611 102.74 130.774 102.652 130.91C102.565 131.045 102.425 131.142 102.264 131.178L102.128 131.2Z" fill="#1E6CAB"/>
<path d="M105.761 131.2C105.607 131.199 105.458 131.159 105.336 131.085C105.215 131.012 105.127 130.909 105.088 130.792L104.352 128.734C104.327 128.664 104.321 128.591 104.333 128.519C104.345 128.447 104.374 128.378 104.42 128.315C104.466 128.253 104.528 128.197 104.601 128.153C104.674 128.109 104.758 128.076 104.847 128.058C104.936 128.039 105.029 128.034 105.121 128.043C105.213 128.052 105.301 128.075 105.381 128.111C105.461 128.147 105.532 128.195 105.588 128.253C105.645 128.31 105.686 128.375 105.711 128.445L106.409 130.504C106.434 130.574 106.441 130.647 106.429 130.719C106.418 130.791 106.388 130.86 106.342 130.923C106.296 130.986 106.234 131.041 106.161 131.085C106.087 131.129 106.003 131.161 105.914 131.18L105.761 131.2Z" fill="#1E6CAB"/>
<path d="M157.355 104.633L190.098 95.4427C190.582 95.3069 191.102 95.3626 191.546 95.5979C191.989 95.8331 192.322 96.2292 192.471 96.7015L197.514 112.465C197.655 112.943 197.598 113.457 197.356 113.895C197.114 114.333 196.705 114.66 196.219 114.804L163.624 124.273C163.139 124.413 162.618 124.36 162.172 124.127C161.726 123.894 161.391 123.498 161.239 123.026L156.049 107.006C155.974 106.766 155.949 106.514 155.974 106.264C155.999 106.015 156.075 105.773 156.196 105.552C156.318 105.331 156.483 105.136 156.682 104.978C156.881 104.821 157.109 104.703 157.355 104.633Z" fill="#FFD600"/>
<path d="M192.905 98.5315L193.901 101.722L158.015 112.231L157.018 109.074L192.905 98.5315Z" fill="#E7AD00"/>
<path d="M190.306 113.411C191.996 112.833 192.898 110.993 192.319 109.302C191.74 107.611 189.9 106.71 188.21 107.289C186.519 107.868 185.618 109.708 186.197 111.398C186.775 113.089 188.615 113.99 190.306 113.411Z" fill="#FF5F00"/>
<path d="M185.28 115.137C186.97 114.558 187.871 112.718 187.293 111.027C186.714 109.337 184.874 108.435 183.183 109.014C181.493 109.593 180.591 111.433 181.17 113.124C181.749 114.814 183.589 115.715 185.28 115.137Z" fill="#FCF8F0"/>
<path d="M238.17 137.963L178.69 132.56C177.145 132.42 175.779 133.558 175.639 135.103L174.427 148.44C174.287 149.985 175.426 151.351 176.971 151.492L236.45 156.894C237.995 157.034 239.361 155.896 239.501 154.351L240.713 141.014C240.853 139.469 239.714 138.103 238.17 137.963Z" fill="#3D8ACD"/>
<path d="M187.052 139.104L188.039 141.746L190.74 142.406L188.588 144.186L188.808 147.007L186.481 145.462L183.923 146.548L184.636 143.817L182.836 141.667L185.603 141.522L187.052 139.104Z" fill="#FFE54C"/>
<path d="M197.332 139.63L198.398 142.453L201.278 143.158L198.983 145.06L199.217 148.061L196.735 146.423L194.007 147.583L194.768 144.665L192.848 142.369L195.798 142.213L197.332 139.63Z" fill="#FFE54C"/>
<path d="M207.876 140.684L208.94 143.33L211.816 143.98L209.524 145.774L209.758 148.588L207.279 147.052L204.543 148.14L205.315 145.404L203.386 143.252L206.344 143.106L207.876 140.684Z" fill="#FFE54C"/>
<path d="M218.421 141.738L219.486 144.384L222.355 145.046L220.06 146.828L220.294 149.642L217.824 148.106L215.084 149.194L215.845 146.458L213.925 144.306L216.875 144.149L218.421 141.738Z" fill="#FFE54C"/>
<path d="M228.958 142.792L230.024 145.438L232.893 146.088L230.598 147.882L230.832 150.696L228.349 149.16L225.621 150.247L226.382 147.512L224.462 145.359L227.413 145.214L228.958 142.792Z" fill="#FFE54C"/>
</svg>
